<svg xmlns="http://www.w3.org/2000/svg" xmlns:xlink="http://www.w3.org/1999/xlink" xmlns:s="https://github.com/nturley/netlistsvg" width="364" height="215.5">
  <style>svg {
    stroke:#000;
    fill:none;
  }
  text {
    fill:#000;
    stroke:none;
    font-size:10px;
    font-weight: bold;
    font-family: "Courier New", monospace;
  }
  .nodelabel {
    text-anchor: middle;
  }
  .inputPortLabel {
    text-anchor: end;
  }
  .splitjoinBody {
    fill:#000;
  }</style>
  <g s:type="add" transform="translate(77,173.5)" s:width="25" s:height="25" id="cell_$add$counter.v:15$2">
    <s:alias val="$add"/>
    <circle r="12.5" cx="12.5" cy="12.5" class="cell_$add$counter.v:15$2"/>
    <line x1="7.5" x2="17.5" y1="12.5" y2="12.5" class="cell_$add$counter.v:15$2"/>
    <line x1="12.5" x2="12.5" y1="7.5" y2="17.5" class="cell_$add$counter.v:15$2"/>
    <g s:x="3" s:y="5" s:pid="A"/>
    <g s:x="3" s:y="20" s:pid="B"/>
    <g s:x="25" s:y="12.5" s:pid="Y"/>
  </g>
  <g s:type="generic" transform="translate(227,77.5)" s:width="30" s:height="40" id="cell_$procdff$3">
    <text x="15" y="-4" class="nodelabel cell_$procdff$3" s:attribute="ref">$adff</text>
    <rect width="30" height="60" s:generic="body" class="cell_$procdff$3"/>
    <g transform="translate(0,10)" s:x="0" s:y="10" s:pid="in0" id="port_$procdff$3~ARST">
      <text x="-3" y="-4" class="inputPortLabel cell_$procdff$3">ARST</text>
    </g>
    <g transform="translate(0,30)" s:x="0" s:y="10" s:pid="in0" id="port_$procdff$3~CLK">
      <text x="-3" y="-4" class="inputPortLabel cell_$procdff$3">CLK</text>
    </g>
    <g transform="translate(0,50)" s:x="0" s:y="10" s:pid="in0" id="port_$procdff$3~D">
      <text x="-3" y="-4" class="inputPortLabel cell_$procdff$3">D</text>
    </g>
    <g transform="translate(30,10)" s:x="30" s:y="10" s:pid="out0" id="port_$procdff$3~Q">
      <text x="5" y="-4" style="fill:#000; stroke:none" class="cell_$procdff$3">Q</text>
    </g>
  </g>
  <g s:type="outputExt" transform="translate(322,78)" s:width="30" s:height="20" id="cell_out">
    <text x="15" y="-4" class="nodelabel cell_out" s:attribute="ref">out</text>
    <s:alias val="$_outputExt_"/>
    <path d="M30,0 L30,20 L15,20 L0,10 L15,0 Z" class="cell_out"/>
    <g s:x="0" s:y="10" s:pid="A"/>
  </g>
  <g s:type="inputExt" transform="translate(137,98)" s:width="30" s:height="20" id="cell_clk">
    <text x="15" y="-4" class="nodelabel cell_clk" s:attribute="ref">clk</text>
    <s:alias val="$_inputExt_"/>
    <path d="M0,0 L0,20 L15,20 L30,10 L15,0 Z" class="cell_clk"/>
    <g s:x="28" s:y="10" s:pid="Y"/>
  </g>
  <g s:type="inputExt" transform="translate(137,33)" s:width="30" s:height="20" id="cell_reset">
    <text x="15" y="-4" class="nodelabel cell_reset" s:attribute="ref">reset</text>
    <s:alias val="$_inputExt_"/>
    <path d="M0,0 L0,20 L15,20 L30,10 L15,0 Z" class="cell_reset"/>
    <g s:x="28" s:y="10" s:pid="Y"/>
  </g>
  <g s:type="constant" transform="translate(12,183.5)" s:width="30" s:height="20" id="cell_00000000000000000000000000000001">
    <text x="15" y="-4" class="nodelabel cell_00000000000000000000000000000001" s:attribute="ref">0x1</text>
    <s:alias val="$_constant_"/>
    <rect width="30" height="20" class="cell_00000000000000000000000000000001"/>
    <g s:x="30" s:y="10" s:pid="Y"/>
  </g>
  <g s:type="split" transform="translate(143,153)" s:width="5" s:height="40" id="cell_$split$,12,13,14,15,16,17,18,19,20,21,22,23,24,25,26,27,28,29,30,31,32,33,34,35,36,37,38,39,40,41,42,43,">
    <rect width="5" height="20" class="splitjoinBody" s:generic="body"/>
    <s:alias val="$_split_"/>
    <g s:x="0" s:y="20" s:pid="in"/>
    <g transform="translate(4,10)" s:x="4" s:y="10" s:pid="out0">
      <text x="5" y="-4">0:7</text>
    </g>
  </g>
  <line x1="258" x2="297" y1="88" y2="88" class="net_2,3,4,5,6,7,8,9"/>
  <line x1="297" x2="297" y1="88" y2="12" class="net_2,3,4,5,6,7,8,9"/>
  <line x1="297" x2="52" y1="12" y2="12" class="net_2,3,4,5,6,7,8,9"/>
  <line x1="52" x2="52" y1="12" y2="178.5" class="net_2,3,4,5,6,7,8,9"/>
  <circle cx="297" cy="88" r="2" style="fill:#000" class="net_2,3,4,5,6,7,8,9"/>
  <line x1="52" x2="80" y1="178.5" y2="178.5" class="net_2,3,4,5,6,7,8,9"/>
  <line x1="258" x2="322" y1="88" y2="88" class="net_2,3,4,5,6,7,8,9"/>
  <line x1="42" x2="80" y1="193.5" y2="193.5" class="net_44,45,46,47,48,49,50,51,52,53,54,55,56,57,58,59,60,61,62,63,64,65,66,67,68,69,70,71,72,73,74,75"/>
  <line x1="165" x2="177" y1="43" y2="43" class="net_11"/>
  <line x1="177" x2="177" y1="43" y2="88" class="net_11"/>
  <line x1="177" x2="227" y1="88" y2="88" class="net_11"/>
  <line x1="165" x2="227" y1="108" y2="108" class="net_10"/>
  <line x1="148" x2="177" y1="163.5" y2="163.5" class="net_12,13,14,15,16,17,18,19"/>
  <line x1="177" x2="177" y1="163.5" y2="128" class="net_12,13,14,15,16,17,18,19"/>
  <line x1="177" x2="227" y1="128" y2="128" class="net_12,13,14,15,16,17,18,19"/>
  <line x1="102" x2="143.5" y1="186" y2="186" class="net_12,13,14,15,16,17,18,19,20,21,22,23,24,25,26,27,28,29,30,31,32,33,34,35,36,37,38,39,40,41,42,43"/>
  <line x1="143.5" x2="143.5" y1="186" y2="174" class="net_12,13,14,15,16,17,18,19,20,21,22,23,24,25,26,27,28,29,30,31,32,33,34,35,36,37,38,39,40,41,42,43"/>
</svg>
