<?xml version="1.0" encoding="UTF-8" standalone="no"?>
<!DOCTYPE svg PUBLIC "-//W3C//DTD SVG 1.1//EN"
 "http://www.w3.org/Graphics/SVG/1.1/DTD/svg11.dtd">
<!-- Generated by graphviz version 2.50.0 (0)
 -->
<!-- Title: control Pages: 1 -->
<svg width="677pt" height="395pt"
 viewBox="0.00 0.00 676.57 394.50" xmlns="http://www.w3.org/2000/svg" xmlns:xlink="http://www.w3.org/1999/xlink">
<g id="graph0" class="graph" transform="scale(1 1) rotate(0) translate(4 390.5)">
<title>control</title>
<polygon fill="white" stroke="transparent" points="-4,4 -4,-390.5 672.57,-390.5 672.57,4 -4,4"/>
<text text-anchor="middle" x="334.29" y="-7.8" font-family="Times,serif" font-size="14.00">control</text>
<!-- n2 -->
<g id="node1" class="node">
<title>n2</title>
<polygon fill="none" stroke="black" points="280.68,-91.04 280.68,-105.96 264.86,-116.5 242.49,-116.5 226.68,-105.96 226.68,-91.04 242.49,-80.5 264.86,-80.5 280.68,-91.04"/>
<text text-anchor="middle" x="253.68" y="-94.8" font-family="Times,serif" font-size="14.00">clk</text>
</g>
<!-- c16 -->
<g id="node10" class="node">
<title>c16</title>
<polygon fill="none" stroke="black" points="365.3,-47.5 365.3,-93.5 507.3,-93.5 507.3,-47.5 365.3,-47.5"/>
<text text-anchor="middle" x="379.3" y="-78.3" font-family="Times,serif" font-size="14.00">C</text>
<polyline fill="none" stroke="black" points="365.3,-70.5 393.3,-70.5 "/>
<text text-anchor="middle" x="379.3" y="-55.3" font-family="Times,serif" font-size="14.00">D</text>
<polyline fill="none" stroke="black" points="393.3,-47.5 393.3,-93.5 "/>
<text text-anchor="middle" x="436.3" y="-74.3" font-family="Times,serif" font-size="14.00">$481</text>
<text text-anchor="middle" x="436.3" y="-59.3" font-family="Times,serif" font-size="14.00">$_DFF_P_</text>
<polyline fill="none" stroke="black" points="479.3,-47.5 479.3,-93.5 "/>
<text text-anchor="middle" x="493.3" y="-66.8" font-family="Times,serif" font-size="14.00">Q</text>
</g>
<!-- n2&#45;&gt;c16 -->
<g id="edge2" class="edge">
<title>n2:e&#45;&gt;c16:w</title>
<path fill="none" stroke="black" d="M281.68,-98.5C315.43,-98.5 325.09,-85.47 354.13,-82.93"/>
<polygon fill="black" stroke="black" points="354.45,-86.42 364.3,-82.5 354.16,-79.42 354.45,-86.42"/>
</g>
<!-- n3 -->
<g id="node2" class="node">
<title>n3</title>
<polygon fill="none" stroke="black" points="436.3,-170.5 371.28,-152.5 436.3,-134.5 501.32,-152.5 436.3,-170.5"/>
<text text-anchor="middle" x="436.3" y="-148.8" font-family="Times,serif" font-size="14.00">counter</text>
</g>
<!-- n4 -->
<g id="node3" class="node">
<title>n4</title>
<polygon fill="none" stroke="black" points="500.33,-199.04 500.33,-213.96 462.82,-224.5 409.77,-224.5 372.26,-213.96 372.26,-199.04 409.77,-188.5 462.82,-188.5 500.33,-199.04"/>
<text text-anchor="middle" x="436.3" y="-202.8" font-family="Times,serif" font-size="14.00">data2send</text>
</g>
<!-- n5 -->
<g id="node4" class="node">
<title>n5</title>
<polygon fill="none" stroke="black" points="132.83,-35.04 132.83,-49.96 100.76,-60.5 55.41,-60.5 23.34,-49.96 23.34,-35.04 55.41,-24.5 100.76,-24.5 132.83,-35.04"/>
<text text-anchor="middle" x="78.09" y="-38.8" font-family="Times,serif" font-size="14.00">i2c_busy</text>
</g>
<!-- c12 -->
<g id="node9" class="node">
<title>c12</title>
<polygon fill="none" stroke="black" points="192.18,-23.5 192.18,-61.5 315.18,-61.5 315.18,-23.5 192.18,-23.5"/>
<text text-anchor="middle" x="205.18" y="-38.8" font-family="Times,serif" font-size="14.00">A</text>
<polyline fill="none" stroke="black" points="218.18,-23.5 218.18,-61.5 "/>
<text text-anchor="middle" x="253.68" y="-46.3" font-family="Times,serif" font-size="14.00">$483</text>
<text text-anchor="middle" x="253.68" y="-31.3" font-family="Times,serif" font-size="14.00">$_NOT_</text>
<polyline fill="none" stroke="black" points="289.18,-23.5 289.18,-61.5 "/>
<text text-anchor="middle" x="302.18" y="-38.8" font-family="Times,serif" font-size="14.00">Y</text>
</g>
<!-- n5&#45;&gt;c12 -->
<g id="edge5" class="edge">
<title>n5:e&#45;&gt;c12:w</title>
<path fill="none" stroke="black" d="M134.09,-42.5C156.07,-42.5 164.02,-42.5 181.83,-42.5"/>
<polygon fill="black" stroke="black" points="182.18,-46 192.18,-42.5 182.18,-39 182.18,-46"/>
</g>
<!-- n6 -->
<g id="node5" class="node">
<title>n6</title>
<polygon fill="none" stroke="black" points="480.44,-253.04 480.44,-267.96 454.58,-278.5 418.01,-278.5 392.16,-267.96 392.16,-253.04 418.01,-242.5 454.58,-242.5 480.44,-253.04"/>
<text text-anchor="middle" x="436.3" y="-256.8" font-family="Times,serif" font-size="14.00">i2c_rw</text>
</g>
<!-- n7 -->
<g id="node6" class="node">
<title>n7</title>
<polygon fill="none" stroke="black" points="521.54,-307.04 521.54,-321.96 471.61,-332.5 400.99,-332.5 351.05,-321.96 351.05,-307.04 400.99,-296.5 471.61,-296.5 521.54,-307.04"/>
<text text-anchor="middle" x="436.3" y="-310.8" font-family="Times,serif" font-size="14.00">i2c_slave_addr</text>
</g>
<!-- n8 -->
<g id="node7" class="node">
<title>n8</title>
<polygon fill="none" stroke="black" points="668.65,-63.04 668.65,-77.96 636.05,-88.5 589.94,-88.5 557.34,-77.96 557.34,-63.04 589.94,-52.5 636.05,-52.5 668.65,-63.04"/>
<text text-anchor="middle" x="613" y="-66.8" font-family="Times,serif" font-size="14.00">i2c_start</text>
</g>
<!-- n9 -->
<g id="node8" class="node">
<title>n9</title>
<polygon fill="none" stroke="black" points="156.26,-361.04 156.26,-375.96 110.47,-386.5 45.71,-386.5 -0.09,-375.96 -0.09,-361.04 45.71,-350.5 110.47,-350.5 156.26,-361.04"/>
<text text-anchor="middle" x="78.09" y="-364.8" font-family="Times,serif" font-size="14.00">receivedData</text>
</g>
<!-- c12&#45;&gt;c16 -->
<g id="edge1" class="edge">
<title>c12:e&#45;&gt;c16:w</title>
<path fill="none" stroke="black" d="M315.18,-42.5C334.19,-42.5 339.65,-53.47 354.01,-57.24"/>
<polygon fill="black" stroke="black" points="353.95,-60.76 364.3,-58.5 354.8,-53.81 353.95,-60.76"/>
</g>
<!-- c16&#45;&gt;n8 -->
<g id="edge8" class="edge">
<title>c16:e&#45;&gt;n8:w</title>
<path fill="none" stroke="black" d="M508.3,-70.5C526.21,-70.5 533.1,-70.5 547.05,-70.5"/>
<polygon fill="black" stroke="black" points="547.42,-74 557.42,-70.5 547.42,-67 547.42,-74"/>
</g>
<!-- v0 -->
<g id="node11" class="node">
<title>v0</title>
<ellipse fill="none" stroke="black" cx="78.09" cy="-152.5" rx="30.59" ry="18"/>
<text text-anchor="middle" x="78.09" y="-148.8" font-family="Times,serif" font-size="14.00">2&#39;00</text>
</g>
<!-- x1 -->
<g id="node12" class="node">
<title>x1</title>
<path fill="none" stroke="black" d="M268.68,-170.5C268.68,-170.5 238.68,-170.5 238.68,-170.5 232.68,-170.5 226.68,-164.5 226.68,-158.5 226.68,-158.5 226.68,-146.5 226.68,-146.5 226.68,-140.5 232.68,-134.5 238.68,-134.5 238.68,-134.5 268.68,-134.5 268.68,-134.5 274.68,-134.5 280.68,-140.5 280.68,-146.5 280.68,-146.5 280.68,-158.5 280.68,-158.5 280.68,-164.5 274.68,-170.5 268.68,-170.5"/>
<text text-anchor="middle" x="253.68" y="-148.8" font-family="Times,serif" font-size="14.00">BUF</text>
</g>
<!-- v0&#45;&gt;x1 -->
<g id="edge9" class="edge">
<title>v0:e&#45;&gt;x1:w</title>
<path fill="none" stroke="black" stroke-width="3" d="M110.09,-152.5C157.95,-152.5 172.37,-152.5 215.66,-152.5"/>
<polygon fill="black" stroke="black" stroke-width="3" points="215.68,-156 225.68,-152.5 215.68,-149 215.68,-156"/>
</g>
<!-- x1&#45;&gt;n3 -->
<g id="edge3" class="edge">
<title>x1:e&#45;&gt;n3:w</title>
<path fill="none" stroke="black" stroke-width="3" d="M281.68,-152.5C317.37,-152.5 328.8,-152.5 359.95,-152.5"/>
<polygon fill="black" stroke="black" stroke-width="3" points="360.3,-156 370.3,-152.5 360.3,-149 360.3,-156"/>
</g>
<!-- v2 -->
<g id="node13" class="node">
<title>v2</title>
<ellipse fill="none" stroke="black" cx="78.09" cy="-206.5" rx="65.79" ry="18"/>
<text text-anchor="middle" x="78.09" y="-202.8" font-family="Times,serif" font-size="14.00">8&#39;00010010</text>
</g>
<!-- x3 -->
<g id="node14" class="node">
<title>x3</title>
<path fill="none" stroke="black" d="M268.68,-224.5C268.68,-224.5 238.68,-224.5 238.68,-224.5 232.68,-224.5 226.68,-218.5 226.68,-212.5 226.68,-212.5 226.68,-200.5 226.68,-200.5 226.68,-194.5 232.68,-188.5 238.68,-188.5 238.68,-188.5 268.68,-188.5 268.68,-188.5 274.68,-188.5 280.68,-194.5 280.68,-200.5 280.68,-200.5 280.68,-212.5 280.68,-212.5 280.68,-218.5 274.68,-224.5 268.68,-224.5"/>
<text text-anchor="middle" x="253.68" y="-202.8" font-family="Times,serif" font-size="14.00">BUF</text>
</g>
<!-- v2&#45;&gt;x3 -->
<g id="edge10" class="edge">
<title>v2:e&#45;&gt;x3:w</title>
<path fill="none" stroke="black" stroke-width="3" d="M145.09,-206.5C177.27,-206.5 187.76,-206.5 215.54,-206.5"/>
<polygon fill="black" stroke="black" stroke-width="3" points="215.68,-210 225.68,-206.5 215.68,-203 215.68,-210"/>
</g>
<!-- x3&#45;&gt;n4 -->
<g id="edge4" class="edge">
<title>x3:e&#45;&gt;n4:w</title>
<path fill="none" stroke="black" stroke-width="3" d="M281.68,-206.5C317.93,-206.5 329.44,-206.5 361.24,-206.5"/>
<polygon fill="black" stroke="black" stroke-width="3" points="361.3,-210 371.3,-206.5 361.3,-203 361.3,-210"/>
</g>
<!-- v4 -->
<g id="node15" class="node">
<title>v4</title>
<ellipse fill="none" stroke="black" cx="78.09" cy="-260.5" rx="27" ry="18"/>
<text text-anchor="middle" x="78.09" y="-256.8" font-family="Times,serif" font-size="14.00">1&#39;0</text>
</g>
<!-- x5 -->
<g id="node16" class="node">
<title>x5</title>
<path fill="none" stroke="black" d="M268.68,-278.5C268.68,-278.5 238.68,-278.5 238.68,-278.5 232.68,-278.5 226.68,-272.5 226.68,-266.5 226.68,-266.5 226.68,-254.5 226.68,-254.5 226.68,-248.5 232.68,-242.5 238.68,-242.5 238.68,-242.5 268.68,-242.5 268.68,-242.5 274.68,-242.5 280.68,-248.5 280.68,-254.5 280.68,-254.5 280.68,-266.5 280.68,-266.5 280.68,-272.5 274.68,-278.5 268.68,-278.5"/>
<text text-anchor="middle" x="253.68" y="-256.8" font-family="Times,serif" font-size="14.00">BUF</text>
</g>
<!-- v4&#45;&gt;x5 -->
<g id="edge11" class="edge">
<title>v4:e&#45;&gt;x5:w</title>
<path fill="none" stroke="black" d="M106.09,-260.5C155.71,-260.5 170.58,-260.5 215.59,-260.5"/>
<polygon fill="black" stroke="black" points="215.68,-264 225.68,-260.5 215.68,-257 215.68,-264"/>
</g>
<!-- x5&#45;&gt;n6 -->
<g id="edge6" class="edge">
<title>x5:e&#45;&gt;n6:w</title>
<path fill="none" stroke="black" d="M281.68,-260.5C326.88,-260.5 340.63,-260.5 381.28,-260.5"/>
<polygon fill="black" stroke="black" points="381.3,-264 391.3,-260.5 381.3,-257 381.3,-264"/>
</g>
<!-- v6 -->
<g id="node17" class="node">
<title>v6</title>
<ellipse fill="none" stroke="black" cx="78.09" cy="-314.5" rx="59.59" ry="18"/>
<text text-anchor="middle" x="78.09" y="-310.8" font-family="Times,serif" font-size="14.00">7&#39;1100100</text>
</g>
<!-- x7 -->
<g id="node18" class="node">
<title>x7</title>
<path fill="none" stroke="black" d="M268.68,-332.5C268.68,-332.5 238.68,-332.5 238.68,-332.5 232.68,-332.5 226.68,-326.5 226.68,-320.5 226.68,-320.5 226.68,-308.5 226.68,-308.5 226.68,-302.5 232.68,-296.5 238.68,-296.5 238.68,-296.5 268.68,-296.5 268.68,-296.5 274.68,-296.5 280.68,-302.5 280.68,-308.5 280.68,-308.5 280.68,-320.5 280.68,-320.5 280.68,-326.5 274.68,-332.5 268.68,-332.5"/>
<text text-anchor="middle" x="253.68" y="-310.8" font-family="Times,serif" font-size="14.00">BUF</text>
</g>
<!-- v6&#45;&gt;x7 -->
<g id="edge12" class="edge">
<title>v6:e&#45;&gt;x7:w</title>
<path fill="none" stroke="black" stroke-width="3" d="M139.09,-314.5C173.96,-314.5 185.13,-314.5 215.57,-314.5"/>
<polygon fill="black" stroke="black" stroke-width="3" points="215.68,-318 225.68,-314.5 215.68,-311 215.68,-318"/>
</g>
<!-- x7&#45;&gt;n7 -->
<g id="edge7" class="edge">
<title>x7:e&#45;&gt;n7:w</title>
<path fill="none" stroke="black" stroke-width="3" d="M281.68,-314.5C308.82,-314.5 318.08,-314.5 340.89,-314.5"/>
<polygon fill="black" stroke="black" stroke-width="3" points="341.18,-318 351.18,-314.5 341.18,-311 341.18,-318"/>
</g>
</g>
</svg>
