<?xml version="1.0" encoding="us-ascii" standalone="no"?><svg xmlns="http://www.w3.org/2000/svg" xmlns:xlink="http://www.w3.org/1999/xlink" contentStyleType="text/css" height="180px" preserveAspectRatio="none" style="width:379px;height:180px;background:#FFFFFF;" version="1.1" viewBox="0 0 379 180" width="379px" zoomAndPan="magnify"><defs/><g><line style="stroke:#333333;stroke-width:0.5;" x1="10" x2="10" y1="10" y2="149.0679"/><line style="stroke:#333333;stroke-width:0.5;" x1="367" x2="367" y1="10" y2="149.0679"/><line style="stroke:#333333;stroke-width:0.5;stroke-dasharray:3.0,5.0;" x1="62" x2="62" y1="10" y2="149.0679"/><line style="stroke:#333333;stroke-width:0.5;stroke-dasharray:3.0,5.0;" x1="112" x2="112" y1="10" y2="149.0679"/><line style="stroke:#333333;stroke-width:0.5;stroke-dasharray:3.0,5.0;" x1="162" x2="162" y1="10" y2="149.0679"/><line style="stroke:#333333;stroke-width:0.5;stroke-dasharray:3.0,5.0;" x1="212" x2="212" y1="10" y2="149.0679"/><line style="stroke:#333333;stroke-width:0.5;stroke-dasharray:3.0,5.0;" x1="262" x2="262" y1="10" y2="149.0679"/><line style="stroke:#333333;stroke-width:0.5;stroke-dasharray:3.0,5.0;" x1="312" x2="312" y1="10" y2="149.0679"/><line style="stroke:#333333;stroke-width:0.5;stroke-dasharray:3.0,5.0;" x1="362" x2="362" y1="10" y2="149.0679"/><line style="stroke:#333333;stroke-width:0.5;" x1="10" x2="367" y1="10" y2="10"/><text fill="#333333" font-family="sans-serif" font-size="14" font-weight="bold" lengthAdjust="spacing" textLength="20" x="15" y="24.9659">clk</text><line style="stroke:#333333;stroke-width:0.5;" x1="10" x2="36" y1="30.0679" y2="30.0679"/><line style="stroke:#333333;stroke-width:0.5;" x1="36" x2="46" y1="30.0679" y2="10"/><line style="stroke:#006400;stroke-width:1.5;" x1="12" x2="12" y1="37.0679" y2="51.0679"/><line style="stroke:#006400;stroke-width:1.5;" x1="12" x2="37" y1="37.0679" y2="37.0679"/><line style="stroke:#006400;stroke-width:1.5;" x1="37" x2="37" y1="37.0679" y2="51.0679"/><line style="stroke:#006400;stroke-width:1.5;" x1="37" x2="62" y1="51.0679" y2="51.0679"/><line style="stroke:#006400;stroke-width:1.5;" x1="62" x2="62" y1="37.0679" y2="51.0679"/><line style="stroke:#006400;stroke-width:1.5;" x1="62" x2="87" y1="37.0679" y2="37.0679"/><line style="stroke:#006400;stroke-width:1.5;" x1="87" x2="87" y1="37.0679" y2="51.0679"/><line style="stroke:#006400;stroke-width:1.5;" x1="87" x2="112" y1="51.0679" y2="51.0679"/><line style="stroke:#006400;stroke-width:1.5;" x1="112" x2="112" y1="37.0679" y2="51.0679"/><line style="stroke:#006400;stroke-width:1.5;" x1="112" x2="137" y1="37.0679" y2="37.0679"/><line style="stroke:#006400;stroke-width:1.5;" x1="137" x2="137" y1="37.0679" y2="51.0679"/><line style="stroke:#006400;stroke-width:1.5;" x1="137" x2="162" y1="51.0679" y2="51.0679"/><line style="stroke:#006400;stroke-width:1.5;" x1="162" x2="162" y1="37.0679" y2="51.0679"/><line style="stroke:#006400;stroke-width:1.5;" x1="162" x2="187" y1="37.0679" y2="37.0679"/><line style="stroke:#006400;stroke-width:1.5;" x1="187" x2="187" y1="37.0679" y2="51.0679"/><line style="stroke:#006400;stroke-width:1.5;" x1="187" x2="212" y1="51.0679" y2="51.0679"/><line style="stroke:#006400;stroke-width:1.5;" x1="212" x2="212" y1="37.0679" y2="51.0679"/><line style="stroke:#006400;stroke-width:1.5;" x1="212" x2="237" y1="37.0679" y2="37.0679"/><line style="stroke:#006400;stroke-width:1.5;" x1="237" x2="237" y1="37.0679" y2="51.0679"/><line style="stroke:#006400;stroke-width:1.5;" x1="237" x2="262" y1="51.0679" y2="51.0679"/><line style="stroke:#006400;stroke-width:1.5;" x1="262" x2="262" y1="37.0679" y2="51.0679"/><line style="stroke:#006400;stroke-width:1.5;" x1="262" x2="287" y1="37.0679" y2="37.0679"/><line style="stroke:#006400;stroke-width:1.5;" x1="287" x2="287" y1="37.0679" y2="51.0679"/><line style="stroke:#006400;stroke-width:1.5;" x1="287" x2="312" y1="51.0679" y2="51.0679"/><line style="stroke:#006400;stroke-width:1.5;" x1="312" x2="312" y1="37.0679" y2="51.0679"/><line style="stroke:#006400;stroke-width:1.5;" x1="312" x2="337" y1="37.0679" y2="37.0679"/><line style="stroke:#006400;stroke-width:1.5;" x1="337" x2="337" y1="37.0679" y2="51.0679"/><line style="stroke:#006400;stroke-width:1.5;" x1="337" x2="362" y1="51.0679" y2="51.0679"/><line style="stroke:#006400;stroke-width:1.5;" x1="362" x2="362" y1="37.0679" y2="51.0679"/><line style="stroke:#006400;stroke-width:1.5;" x1="362" x2="362" y1="37.0679" y2="37.0679"/><line style="stroke:#333333;stroke-width:0.5;" x1="10" x2="367" y1="59.0679" y2="59.0679"/><text fill="#333333" font-family="sans-serif" font-size="14" font-weight="bold" lengthAdjust="spacing" textLength="34" x="15" y="79.4999">Start</text><line style="stroke:#006400;stroke-width:2.0;" x1="62" x2="62" y1="81.0679" y2="81.0679"/><line style="stroke:#006400;stroke-width:2.0;" x1="62" x2="62" y1="67.0679" y2="81.0679"/><line style="stroke:#006400;stroke-width:2.0;" x1="62" x2="112" y1="67.0679" y2="67.0679"/><line style="stroke:#006400;stroke-width:2.0;" x1="112" x2="112" y1="67.0679" y2="81.0679"/><line style="stroke:#006400;stroke-width:2.0;" x1="112" x2="362" y1="81.0679" y2="81.0679"/><line style="stroke:#333333;stroke-width:0.5;" x1="10" x2="367" y1="89.0679" y2="89.0679"/><text fill="#333333" font-family="sans-serif" font-size="14" font-weight="bold" lengthAdjust="spacing" textLength="42" x="15" y="109.4999">Signal</text><line style="stroke:#006400;stroke-width:2.0;" x1="62" x2="112" y1="111.0679" y2="111.0679"/><line style="stroke:#006400;stroke-width:2.0;" x1="112" x2="112" y1="97.0679" y2="111.0679"/><line style="stroke:#006400;stroke-width:2.0;" x1="112" x2="312" y1="97.0679" y2="97.0679"/><line style="stroke:#006400;stroke-width:2.0;" x1="312" x2="312" y1="97.0679" y2="111.0679"/><line style="stroke:#006400;stroke-width:2.0;" x1="312" x2="362" y1="111.0679" y2="111.0679"/><line style="stroke:#333333;stroke-width:0.5;" x1="10" x2="367" y1="119.0679" y2="119.0679"/><text fill="#333333" font-family="sans-serif" font-size="14" font-weight="bold" lengthAdjust="spacing" textLength="33" x="15" y="139.4999">Busy</text><line style="stroke:#006400;stroke-width:2.0;" x1="62" x2="112" y1="141.0679" y2="141.0679"/><line style="stroke:#006400;stroke-width:2.0;" x1="112" x2="112" y1="127.0679" y2="141.0679"/><line style="stroke:#006400;stroke-width:2.0;" x1="112" x2="312" y1="127.0679" y2="127.0679"/><line style="stroke:#006400;stroke-width:2.0;" x1="312" x2="312" y1="127.0679" y2="141.0679"/><line style="stroke:#006400;stroke-width:2.0;" x1="312" x2="362" y1="141.0679" y2="141.0679"/><line style="stroke:#333333;stroke-width:2.0;" x1="62" x2="62" y1="149.0679" y2="154.0679"/><line style="stroke:#333333;stroke-width:2.0;" x1="112" x2="112" y1="149.0679" y2="154.0679"/><line style="stroke:#333333;stroke-width:2.0;" x1="162" x2="162" y1="149.0679" y2="154.0679"/><line style="stroke:#333333;stroke-width:2.0;" x1="212" x2="212" y1="149.0679" y2="154.0679"/><line style="stroke:#333333;stroke-width:2.0;" x1="262" x2="262" y1="149.0679" y2="154.0679"/><line style="stroke:#333333;stroke-width:2.0;" x1="312" x2="312" y1="149.0679" y2="154.0679"/><line style="stroke:#333333;stroke-width:2.0;" x1="362" x2="362" y1="149.0679" y2="154.0679"/><line style="stroke:#333333;stroke-width:2.0;" x1="62" x2="362" y1="149.0679" y2="149.0679"/><text fill="#333333" font-family="sans-serif" font-size="11" lengthAdjust="spacing" textLength="6" x="59" y="166.8268">1</text><text fill="#333333" font-family="sans-serif" font-size="11" lengthAdjust="spacing" textLength="6" x="109" y="166.8268">2</text><text fill="#333333" font-family="sans-serif" font-size="11" lengthAdjust="spacing" textLength="6" x="309" y="166.8268">6</text><!--SRC=[JOfB3eGW50JtdAB32PwpcBNX2dW1XZ7o0X43J8ot7py4tNLLbmtHUaWRl8J9i8ILYyCo9evVTEB3iqaRf2ucbJFHmorvcasuB3MhVdaxdI8X-axe0PpXU78xlYg6k5v4xLJqwDxrEJhLrXy0]--></g></svg>