<?xml version="1.0" encoding="us-ascii" standalone="no"?><svg xmlns="http://www.w3.org/2000/svg" xmlns:xlink="http://www.w3.org/1999/xlink" contentStyleType="text/css" height="104px" preserveAspectRatio="none" style="width:365px;height:104px;background:#FFFFFF;" version="1.1" viewBox="0 0 365 104" width="365px" zoomAndPan="magnify"><defs/><g><!--entity pulse_width--><g id="elem_pulse_width"><rect fill="#F1F1F1" height="49.0679" rx="2.5" ry="2.5" style="stroke:#181818;stroke-width:0.5;" width="121" x="119" y="39.47"/><rect fill="#F1F1F1" height="10" style="stroke:#181818;stroke-width:0.5;" width="15" x="220" y="44.47"/><rect fill="#F1F1F1" height="2" style="stroke:#181818;stroke-width:0.5;" width="4" x="218" y="46.47"/><rect fill="#F1F1F1" height="2" style="stroke:#181818;stroke-width:0.5;" width="4" x="218" y="50.47"/><text fill="#000000" font-family="sans-serif" font-size="14" lengthAdjust="spacing" textLength="81" x="134" y="74.4359">pulse_width</text></g><!--entity clk--><g id="elem_clk"><ellipse cx="74.5" cy="63.97" fill="#F1F1F1" rx="8" ry="8" style="stroke:#181818;stroke-width:0.5;"/><text fill="#000000" font-family="sans-serif" font-size="14" lengthAdjust="spacing" textLength="18" x="65.5" y="95.9359">clk</text></g><!--entity start--><g id="elem_start"><ellipse cx="21.5" cy="63.97" fill="#F1F1F1" rx="8" ry="8" style="stroke:#181818;stroke-width:0.5;"/><text fill="#000000" font-family="sans-serif" font-size="14" lengthAdjust="spacing" textLength="31" x="6" y="95.9359">start</text></g><!--entity signal--><g id="elem_signal"><ellipse cx="337.5" cy="63.97" fill="#F1F1F1" rx="8" ry="8" style="stroke:#181818;stroke-width:0.5;"/><text fill="#000000" font-family="sans-serif" font-size="14" lengthAdjust="spacing" textLength="41" x="317" y="95.9359">signal</text></g><!--entity busy--><g id="elem_busy"><ellipse cx="284.5" cy="63.97" fill="#F1F1F1" rx="8" ry="8" style="stroke:#181818;stroke-width:0.5;"/><text fill="#000000" font-family="sans-serif" font-size="14" lengthAdjust="spacing" textLength="32" x="268.5" y="95.9359">busy</text></g><!--link clk to pulse_width--><g id="link_clk_pulse_width"><path d="M83.52,63.97 C95.27,63.97 101.02,63.97 112.76,63.97 " fill="none" id="clk-to-pulse_width" style="stroke:#181818;stroke-width:1.0;"/><polygon fill="#181818" points="118.76,63.97,109.76,59.97,113.76,63.97,109.76,67.97,118.76,63.97" style="stroke:#181818;stroke-width:1.0;"/></g><!--link start to pulse_width--><g id="link_start_pulse_width"><path d="M25.69,54.9 C32.21,42.01 46.14,18.9 66,9.47 C73.23,6.04 76.27,7.42 84,9.47 C106.33,15.39 123.8641,24.5974 141.4441,36.1374 " fill="none" id="start-to-pulse_width" style="stroke:#181818;stroke-width:1.0;"/><polygon fill="#181818" points="146.46,39.43,141.1312,31.1472,142.2801,36.6862,136.7411,37.8351,146.46,39.43" style="stroke:#181818;stroke-width:1.0;"/></g><!--link pulse_width to signal--><g id="link_pulse_width_signal"><path d="M212.92,39.42 C230.69,27.89 253.48,15.39 276,9.47 C283.74,7.44 286.79,6 294,9.47 C313.64,18.92 324.5203,36.6419 330.8303,49.5219 " fill="none" id="pulse_width-to-signal" style="stroke:#181818;stroke-width:1.0;"/><polygon fill="#181818" points="333.47,54.91,333.1026,45.068,331.2703,50.4199,325.9184,48.5876,333.47,54.91" style="stroke:#181818;stroke-width:1.0;"/></g><!--link pulse_width to busy--><g id="link_pulse_width_busy"><path d="M240.2,63.97 C251.85,63.97 257.51,63.97 269.16,63.97 " fill="none" id="pulse_width-to-busy" style="stroke:#181818;stroke-width:1.0;"/><polygon fill="#181818" points="275.16,63.97,266.16,59.97,270.16,63.97,266.16,67.97,275.16,63.97" style="stroke:#181818;stroke-width:1.0;"/></g><!--SRC=[YouepIbEZI_FJ2d9Y5MmqSr9JIlHLKZEoUQAnYfJN99OL88cfrkKcPvHeckdK9oPdfUOWqisgRIu4W00]--></g></svg>