<?xml version="1.0" encoding="us-ascii" standalone="no"?><svg xmlns="http://www.w3.org/2000/svg" xmlns:xlink="http://www.w3.org/1999/xlink" contentStyleType="text/css" height="404px" preserveAspectRatio="none" style="width:1477px;height:404px;background:#FFFFFF;" version="1.1" viewBox="0 0 1477 404" width="1477px" zoomAndPan="magnify"><rect width="100%" height="100%" fill="#ffffff" stroke="none"/><defs/><g><text fill="#000000" font-family="sans-serif" font-size="14" font-weight="bold" lengthAdjust="spacing" textLength="83" x="690" y="24.9659">FPGA-ESP32</text><!--cluster BlackICE--><g id="cluster_BlackICE"><path d="M8.5,49.7279 L68.5,49.7279 A3.75,3.75 0 0 1 71,52.2279 L78,74.7958 L661.5,74.7958 A2.5,2.5 0 0 1 664,77.2958 L664,365.2279 A2.5,2.5 0 0 1 661.5,367.7279 L8.5,367.7279 A2.5,2.5 0 0 1 6,365.2279 L6,52.2279 A2.5,2.5 0 0 1 8.5,49.7279 " fill="none" style="stroke:#000000;stroke-width:1.5;"/><line style="stroke:#000000;stroke-width:1.5;" x1="6" x2="78" y1="74.7958" y2="74.7958"/><text fill="#000000" font-family="sans-serif" font-size="14" font-weight="bold" lengthAdjust="spacing" textLength="59" x="10" y="66.6939">BlackICE</text></g><!--cluster FPGA\nICE40HX4K--><g id="cluster_FPGA\nICE40HX4K"><rect fill="#00FF00" height="230" rx="2.5" ry="2.5" style="stroke:#181818;stroke-width:1.0;" width="244.5" x="367.5" y="95.7279"/><text fill="#000000" font-family="sans-serif" font-size="14" font-weight="bold" lengthAdjust="spacing" textLength="37" x="471.25" y="112.6939">FPGA</text><text fill="#000000" font-family="sans-serif" font-size="14" font-weight="bold" lengthAdjust="spacing" textLength="75" x="452.25" y="131.7618">ICE40HX4K</text></g><!--cluster BRIDGE\nSTM32F--><g id="cluster_BRIDGE\nSTM32F"><rect fill="#00FF00" height="212" rx="2.5" ry="2.5" style="stroke:#181818;stroke-width:1.0;" width="199.5" x="22" y="113.7279"/><text fill="#000000" font-family="sans-serif" font-size="14" font-weight="bold" lengthAdjust="spacing" textLength="51" x="96.25" y="130.6939">BRIDGE</text><text fill="#000000" font-family="sans-serif" font-size="14" font-weight="bold" lengthAdjust="spacing" textLength="53" x="95.25" y="149.7618">STM32F</text></g><!--cluster ESP32--><g id="cluster_ESP32"><rect fill="#DDDDDD" height="230" rx="2.5" ry="2.5" style="stroke:#181818;stroke-width:1.0;" width="217.5" x="923" y="113.7279"/><text fill="#000000" font-family="sans-serif" font-size="14" font-weight="bold" lengthAdjust="spacing" textLength="41" x="1011.25" y="130.6939">ESP32</text></g><!--cluster PC--><g id="cluster_PC"><rect fill="#DDDDDD" height="142" rx="2.5" ry="2.5" style="stroke:#181818;stroke-width:1.0;" width="135.5" x="1335.5" y="204.7279"/><text fill="#000000" font-family="sans-serif" font-size="14" font-weight="bold" lengthAdjust="spacing" textLength="18" x="1394.25" y="221.6939">PC</text></g><text fill="#000000" font-family="sans-serif" font-size="14" lengthAdjust="spacing" textLength="64" x="577" y="346.6939">fpga_gnd</text><rect fill="#F1F1F1" height="12" style="stroke:#181818;stroke-width:1.5;" width="12" x="603" y="319.7279"/><text fill="#000000" font-family="sans-serif" font-size="14" lengthAdjust="spacing" textLength="89" x="567.5" y="240.6939">fpga_pin_134</text><rect fill="#F1F1F1" height="12" style="stroke:#181818;stroke-width:1.5;" width="12" x="606" y="213.7279"/><text fill="#000000" font-family="sans-serif" font-size="14" lengthAdjust="spacing" textLength="89" x="567.5" y="91.6259">fpga_pin_135</text><rect fill="#F1F1F1" height="12" style="stroke:#181818;stroke-width:1.5;" width="12" x="606" y="107.7279"/><text fill="#000000" font-family="sans-serif" font-size="14" lengthAdjust="spacing" textLength="63" x="336" y="179.6259">fpga_jtag</text><rect fill="#F1F1F1" height="12" style="stroke:#181818;stroke-width:1.5;" width="12" x="361.5" y="195.7279"/><text fill="#000000" font-family="sans-serif" font-size="14" lengthAdjust="spacing" textLength="78" x="157" y="346.6939">bridge_USB</text><rect fill="#F1F1F1" height="12" style="stroke:#181818;stroke-width:1.5;" width="12" x="190" y="319.7279"/><text fill="#000000" font-family="sans-serif" font-size="14" lengthAdjust="spacing" textLength="136" x="135.5" y="197.6259">bridge_jtag_bitbang</text><rect fill="#F1F1F1" height="12" style="stroke:#181818;stroke-width:1.5;" width="12" x="197.5" y="213.7279"/><text fill="#000000" font-family="sans-serif" font-size="14" lengthAdjust="spacing" textLength="78" x="157" y="91.6259">bridge_gnd</text><rect fill="#F1F1F1" height="12" style="stroke:#181818;stroke-width:1.5;" width="12" x="190" y="107.7279"/><text fill="#000000" font-family="sans-serif" font-size="14" lengthAdjust="spacing" textLength="73" x="886.5" y="346.6939">esp32_gnd</text><rect fill="#F1F1F1" height="12" style="stroke:#181818;stroke-width:1.5;" width="12" x="917" y="319.7279"/><text fill="#000000" font-family="sans-serif" font-size="14" lengthAdjust="spacing" textLength="108" x="873.5" y="197.6259">esp32_tx_pin_17</text><rect fill="#F1F1F1" height="12" style="stroke:#181818;stroke-width:1.5;" width="12" x="921.5" y="213.7279"/><text fill="#000000" font-family="sans-serif" font-size="14" lengthAdjust="spacing" textLength="109" x="873" y="91.6259">esp32_rx_pin_16</text><rect fill="#F1F1F1" height="12" style="stroke:#181818;stroke-width:1.5;" width="12" x="921.5" y="107.7279"/><text fill="#000000" font-family="sans-serif" font-size="14" lengthAdjust="spacing" textLength="73" x="1104" y="172.6259">esp32_USB</text><rect fill="#F1F1F1" height="12" style="stroke:#181818;stroke-width:1.5;" width="12" x="1134.5" y="188.7279"/><text fill="#000000" font-family="sans-serif" font-size="14" lengthAdjust="spacing" textLength="74" x="1298.5" y="349.6939">pc_ttyUSB0</text><rect fill="#F1F1F1" height="12" style="stroke:#181818;stroke-width:1.5;" width="12" x="1329.5" y="322.7279"/><text fill="#000000" font-family="sans-serif" font-size="14" lengthAdjust="spacing" textLength="74" x="1298.5" y="200.6259">pc_ttyUSB1</text><rect fill="#F1F1F1" height="12" style="stroke:#181818;stroke-width:1.5;" width="12" x="1329.5" y="216.7279"/><!--link fpga_gnd to esp32_gnd--><g id="link_fpga_gnd_esp32_gnd"><path d="M615.4,325.7279 C651.68,325.7279 878.22,325.7279 916.89,325.7279 " fill="none" id="fpga_gnd-esp32_gnd" style="stroke:#181818;stroke-width:1.0;"/><text fill="#000000" font-family="sans-serif" font-size="13" lengthAdjust="spacing" textLength="28" x="750" y="321.6249">GND</text></g><!--link fpga_pin_135 to esp32_rx_pin_16--><g id="link_fpga_pin_135_esp32_rx_pin_16"><path d="M618.42,113.7279 C654.97,113.7279 878.03,113.7279 915.36,113.7279 " fill="none" id="fpga_pin_135-to-esp32_rx_pin_16" style="stroke:#181818;stroke-width:1.0;"/><polygon fill="#181818" points="921.36,113.7279,912.36,109.7279,916.36,113.7279,912.36,117.7279,921.36,113.7279" style="stroke:#181818;stroke-width:1.0;"/><text fill="#000000" font-family="sans-serif" font-size="13" lengthAdjust="spacing" textLength="106" x="711" y="109.6249">UART Transmitter</text></g><!--reverse link fpga_pin_134 to esp32_tx_pin_17--><g id="link_fpga_pin_134_esp32_tx_pin_17"><path d="M624.42,219.7279 C660.97,219.7279 884.03,219.7279 921.36,219.7279 " fill="none" id="fpga_pin_134-backto-esp32_tx_pin_17" style="stroke:#181818;stroke-width:1.0;"/><polygon fill="#181818" points="618.42,219.7279,627.42,223.7279,623.42,219.7279,627.42,215.7279,618.42,219.7279" style="stroke:#181818;stroke-width:1.0;"/><text fill="#000000" font-family="sans-serif" font-size="13" lengthAdjust="spacing" textLength="86" x="721" y="215.6249">UART Receiver</text></g><!--link esp32_USB to pc_ttyUSB1--><g id="link_esp32_USB_pc_ttyUSB1"><path d="M1152.7076,196.281 C1179.0576,200.111 1294.8023,216.8957 1323.3823,221.0457 " fill="none" id="esp32_USB-pc_ttyUSB1" style="stroke:#181818;stroke-width:1.0;"/><polygon fill="#181818" points="1146.77,195.4179,1155.1011,200.6709,1151.718,196.1371,1156.2518,192.7541,1146.77,195.4179" style="stroke:#181818;stroke-width:1.0;"/><polygon fill="#181818" points="1329.32,221.9079,1320.9882,216.6561,1324.3719,221.1894,1319.8386,224.5731,1329.32,221.9079" style="stroke:#181818;stroke-width:1.0;"/><text fill="#000000" font-family="sans-serif" font-size="13" lengthAdjust="spacing" textLength="79" x="1196" y="199.6249">USB Picocom</text></g><!--link bridge_USB to pc_ttyUSB0--><g id="link_bridge_USB_pc_ttyUSB0"><path d="M206.9537,333.3695 C226.7937,348.3895 295.65,396.7279 365,396.7279 C365,396.7279 365,396.7279 1139,396.7279 C1218.6,396.7279 1301.7224,349.18 1324.3524,335.33 " fill="none" id="bridge_USB-pc_ttyUSB0" style="stroke:#008000;stroke-width:1.0;"/><polygon fill="#008000" points="202.17,329.7479,206.9312,338.3694,206.1565,332.7659,211.76,331.9911,202.17,329.7479" style="stroke:#008000;stroke-width:1.0;"/><polygon fill="#008000" points="1329.47,332.1979,1319.7055,333.4843,1325.2053,334.808,1323.8816,340.3078,1329.47,332.1979" style="stroke:#008000;stroke-width:1.0;"/><text fill="#000000" font-family="sans-serif" font-size="13" lengthAdjust="spacing" textLength="166" x="681" y="392.6249">USB OpenFPGALoader JTAG</text></g><!--link bridge_jtag_bitbang to fpga_jtag--><g id="link_bridge_jtag_bitbang_fpga_jtag"><path d="M215.6334,218.5462 C238.8834,215.9662 329.9767,205.8402 355.3667,203.0202 " fill="none" id="bridge_jtag_bitbang-fpga_jtag" style="stroke:#008000;stroke-width:1.0;"/><polygon fill="#008000" points="209.67,219.2079,219.0563,222.1909,214.6395,218.6565,218.1739,214.2397,209.67,219.2079" style="stroke:#008000;stroke-width:1.0;"/><polygon fill="#008000" points="361.33,202.3579,351.9434,199.3759,356.3606,202.9099,352.8266,207.327,361.33,202.3579" style="stroke:#008000;stroke-width:1.0;"/><text fill="#000000" font-family="sans-serif" font-size="13" lengthAdjust="spacing" textLength="28" x="280" y="204.6249">JTAG</text></g><!--link bridge_gnd to fpga_gnd--><g id="link_bridge_gnd_fpga_gnd"><path d="M202.04,112.1879 C236.96,101.8879 444.78,46.0679 553,142.7279 C590.83,176.5179 559.17,206.5379 575,254.7279 C583.25,279.8479 598.24,307.6679 605.01,319.6679 " fill="none" id="bridge_gnd-fpga_gnd" style="stroke:#008000;stroke-width:1.0;"/><text fill="#000000" font-family="sans-serif" font-size="13" lengthAdjust="spacing" textLength="28" x="352" y="83.6249">GND</text></g><!--SRC=[RL9TRu9047o_Nx7HPnChj4rCO-8djPz6CMbI3JdXf5VXk9pRfiRql_TEA23o1hEpCxC3o35YC9av_TPuCRCw969R14n0yV038U2A-SWJGVOxBYHLD0O_YMKYcC057lIk8L0HHemGIVqT3Haq1f5-cWx73JWIW7SZlnBwtMxVlzcFQuCDvjEHCrw9XVjiTIPhyajoNQZmeHdnc9saPA8m-KBOof1weGYgaEJ2kxBiUlWwWxb8qK-aeVOj6P-7gl7TA1w4p5ik1fUWaVCs73UwZSkf2NlcTQeRca4G78jSR2-jJkcm7CAVz8ZRwa1bWvkIPJen8SySPyEJ7PJyfEyX7ZIpNODTcVN_fg7LAj9rmNaPaNArUjoh9kh2iZztmLLKx6EEo5HvnOQxN3A_BbkPCv_nRytFBp7aNYcQ9cfmnlr4tqUAprBXjQ4PAiO4fFnNoOJvkPuI6Z053sxV8JLVBnN9_v52exoGTPBtavDCDNy0]--></g></svg>