<?xml version="1.0" encoding="us-ascii" standalone="no"?><svg xmlns="http://www.w3.org/2000/svg" xmlns:xlink="http://www.w3.org/1999/xlink" contentStyleType="text/css" height="327px" preserveAspectRatio="none" style="width:806px;height:327px;background:#FFFFFF;" version="1.1" viewBox="0 0 806 327" width="806px" zoomAndPan="magnify"><rect width="100%" height="100%" fill="#ffffff" stroke="none"/><defs/><g><text fill="#000000" font-family="sans-serif" font-size="14" font-weight="bold" lengthAdjust="spacing" textLength="83" x="354.5" y="24.9659">FPGA-ESP32</text><!--cluster FPGA--><g id="cluster_FPGA"><rect fill="#DDDDDD" height="230" rx="2.5" ry="2.5" style="stroke:#181818;stroke-width:1.0;" width="127.5" x="7" y="85.7378"/><rect fill="#DDDDDD" height="10" style="stroke:#181818;stroke-width:1.0;" width="15" x="114.5" y="90.7378"/><rect fill="#DDDDDD" height="2" style="stroke:#181818;stroke-width:1.0;" width="4" x="112.5" y="92.7378"/><rect fill="#DDDDDD" height="2" style="stroke:#181818;stroke-width:1.0;" width="4" x="112.5" y="96.7378"/><text fill="#000000" font-family="sans-serif" font-size="14" font-weight="bold" lengthAdjust="spacing" textLength="37" x="52.25" y="113.7038">FPGA</text></g><!--cluster ESP32--><g id="cluster_ESP32"><rect fill="#DDDDDD" height="230" rx="2.5" ry="2.5" style="stroke:#181818;stroke-width:1.0;" width="222" x="301.5" y="67.7378"/><rect fill="#DDDDDD" height="10" style="stroke:#181818;stroke-width:1.0;" width="15" x="503.5" y="72.7378"/><rect fill="#DDDDDD" height="2" style="stroke:#181818;stroke-width:1.0;" width="4" x="501.5" y="74.7378"/><rect fill="#DDDDDD" height="2" style="stroke:#181818;stroke-width:1.0;" width="4" x="501.5" y="78.7378"/><text fill="#000000" font-family="sans-serif" font-size="14" font-weight="bold" lengthAdjust="spacing" textLength="41" x="392" y="95.7038">ESP32</text></g><!--cluster PC--><g id="cluster_PC"><rect fill="#DDDDDD" height="54" rx="2.5" ry="2.5" style="stroke:#181818;stroke-width:1.0;" width="138" x="662" y="59.7378"/><rect fill="#DDDDDD" height="10" style="stroke:#181818;stroke-width:1.0;" width="15" x="780" y="64.7378"/><rect fill="#DDDDDD" height="2" style="stroke:#181818;stroke-width:1.0;" width="4" x="778" y="66.7378"/><rect fill="#DDDDDD" height="2" style="stroke:#181818;stroke-width:1.0;" width="4" x="778" y="70.7378"/><text fill="#000000" font-family="sans-serif" font-size="14" font-weight="bold" lengthAdjust="spacing" textLength="18" x="722" y="87.7038">PC</text></g><text fill="#000000" font-family="sans-serif" font-size="14" lengthAdjust="spacing" textLength="64" x="102.5" y="318.7038">fpga_gnd</text><rect fill="#F1F1F1" height="12" style="stroke:#181818;stroke-width:1.5;" width="12" x="128.5" y="291.7378"/><text fill="#000000" font-family="sans-serif" font-size="14" lengthAdjust="spacing" textLength="50" x="108" y="169.6358">fpga_rx</text><rect fill="#F1F1F1" height="12" style="stroke:#181818;stroke-width:1.5;" width="12" x="127" y="185.7378"/><text fill="#000000" font-family="sans-serif" font-size="14" lengthAdjust="spacing" textLength="49" x="108.5" y="63.6358">fpga_tx</text><rect fill="#F1F1F1" height="12" style="stroke:#181818;stroke-width:1.5;" width="12" x="127" y="79.7378"/><text fill="#000000" font-family="sans-serif" font-size="14" lengthAdjust="spacing" textLength="73" x="285" y="318.7038">esp32_gnd</text><rect fill="#F1F1F1" height="12" style="stroke:#181818;stroke-width:1.5;" width="12" x="315.5" y="291.7378"/><text fill="#000000" font-family="sans-serif" font-size="14" lengthAdjust="spacing" textLength="58" x="290.5" y="212.7038">esp32_tx</text><rect fill="#F1F1F1" height="12" style="stroke:#181818;stroke-width:1.5;" width="12" x="313.5" y="185.7378"/><text fill="#000000" font-family="sans-serif" font-size="14" lengthAdjust="spacing" textLength="59" x="290.5" y="63.6358">esp32_rx</text><rect fill="#F1F1F1" height="12" style="stroke:#181818;stroke-width:1.5;" width="12" x="314" y="79.7378"/><text fill="#000000" font-family="sans-serif" font-size="14" lengthAdjust="spacing" textLength="71" x="488" y="64.6358">esp32_usb</text><rect fill="#F1F1F1" height="12" style="stroke:#181818;stroke-width:1.5;" width="12" x="517.5" y="80.7378"/><text fill="#000000" font-family="sans-serif" font-size="14" lengthAdjust="spacing" textLength="47" x="638.5" y="64.6358">pc_usb</text><rect fill="#F1F1F1" height="12" style="stroke:#181818;stroke-width:1.5;" width="12" x="656" y="80.7378"/><!--link fpga_gnd to esp32_gnd--><g id="link_fpga_gnd_esp32_gnd"><path d="M140.57,297.7378 C165.72,297.7378 287.08,297.7378 315.18,297.7378 " fill="none" id="fpga_gnd-esp32_gnd" style="stroke:#181818;stroke-width:1.0;"/><text fill="#000000" font-family="sans-serif" font-size="13" lengthAdjust="spacing" textLength="28" x="212" y="293.6348">GND</text></g><!--link fpga_tx to esp32_rx--><g id="link_fpga_tx_esp32_rx"><path d="M139.34,85.7378 C166.35,85.7378 281.76,85.7378 307.99,85.7378 " fill="none" id="fpga_tx-to-esp32_rx" style="stroke:#181818;stroke-width:1.0;"/><polygon fill="#181818" points="313.99,85.7378,304.99,81.7378,308.99,85.7378,304.99,89.7378,313.99,85.7378" style="stroke:#181818;stroke-width:1.0;"/><text fill="#000000" font-family="sans-serif" font-size="13" lengthAdjust="spacing" textLength="70" x="191" y="81.6348">Transmitter</text></g><!--reverse link fpga_rx to esp32_tx--><g id="link_fpga_rx_esp32_tx"><path d="M145.34,191.7378 C172.12,191.7378 285.63,191.7378 313.28,191.7378 " fill="none" id="fpga_rx-backto-esp32_tx" style="stroke:#181818;stroke-width:1.0;"/><polygon fill="#181818" points="139.34,191.7378,148.34,195.7378,144.34,191.7378,148.34,187.7378,139.34,191.7378" style="stroke:#181818;stroke-width:1.0;"/><text fill="#000000" font-family="sans-serif" font-size="13" lengthAdjust="spacing" textLength="50" x="201" y="187.6348">Receiver</text></g><!--link esp32_usb to pc_usb--><g id="link_esp32_usb_pc_usb"><path d="M535.52,86.7378 C555.99,86.7378 627.83,86.7378 649.74,86.7378 " fill="none" id="esp32_usb-pc_usb" style="stroke:#181818;stroke-width:1.0;"/><polygon fill="#181818" points="529.52,86.7378,538.52,90.7378,534.52,86.7378,538.52,82.7378,529.52,86.7378" style="stroke:#181818;stroke-width:1.0;"/><polygon fill="#181818" points="655.74,86.7378,646.74,82.7378,650.74,86.7378,646.74,90.7378,655.74,86.7378" style="stroke:#181818;stroke-width:1.0;"/><text fill="#000000" font-family="sans-serif" font-size="13" lengthAdjust="spacing" textLength="25" x="579" y="82.6348">USB</text></g><!--SRC=[NO_D3e8m48JlVOfDF7E16p4a_d8pHFHii2tO1DgcB8R4-EuYjXMupixCDui2Qmx7BDq4XpoBGbBp4W4L654z49WmdA9Gab3LQ2MvnD4CAyOOl0Y0LWPLXr3gghXLaYqbqoyLxCcRJFf6xbZe-eG4tkeedFHv2VkbCYFyfAwzpndPpYssKKsToGs78FXJOqXFUsBd3fV4isAuc4AsZK3aXjWNOUt3E3ZEd7Bn7Cv-pTUGM6WCrtnBFW00]--></g></svg>