<svg xmlns="http://www.w3.org/2000/svg" xmlns:xlink="http://www.w3.org/1999/xlink" xmlns:s="https://github.com/nturley/netlistsvg" width="983" height="742.5">
  <rect width="100%" height="100%" fill="white"/><style>svg {
  stroke:#000;
  fill:none;
}
text {
  fill:#000;
  stroke:none;
  font-size:10px;
  font-weight: bold;
  font-family: "Courier New", monospace;
}
line {
    stroke-linecap: round;
}
.nodelabel {
  text-anchor: middle;
}
.inputPortLabel {
  text-anchor: end;
}
.splitjoinBody {
  fill:#000;
}</style><g s:type="and" transform="translate(423.6666666666667,584)" s:width="30" s:height="25" id="cell_$and$SOC.v:63$2"><s:alias val="$and"/><s:alias val="$logic_and"/><s:alias val="$_AND_"/><s:alias val="$reduce_and"/><path d="M0,0 L0,25 L15,25 A15 12.5 0 0 0 15,0 Z" class="cell_$and$SOC.v:63$2"/><g s:x="0" s:y="5" s:pid="A"/><g s:x="0" s:y="20" s:pid="B"/><g s:x="30" s:y="12.5" s:pid="Y"/></g><g s:type="and" transform="translate(358,665)" s:width="30" s:height="25" id="cell_$and$SOC.v:65$3"><s:alias val="$and"/><s:alias val="$logic_and"/><s:alias val="$_AND_"/><s:alias val="$reduce_and"/><path d="M0,0 L0,25 L15,25 A15 12.5 0 0 0 15,0 Z" class="cell_$and$SOC.v:65$3"/><g s:x="0" s:y="5" s:pid="A"/><g s:x="0" s:y="20" s:pid="B"/><g s:x="30" s:y="12.5" s:pid="Y"/></g><g s:type="not" transform="translate(424,154)" s:width="30" s:height="20" id="cell_$logic_not$SOC.v:77$4"><s:alias val="$_NOT_"/><s:alias val="$not"/><s:alias val="$logic_not"/><path d="M0,0 L0,20 L20,10 Z" class="cell_$logic_not$SOC.v:77$4"/><circle cx="24" cy="10" r="3" class="cell_$logic_not$SOC.v:77$4"/><g s:x="-1" s:y="10" s:pid="A"/><g s:x="27" s:y="10" s:pid="Y"/></g><g s:type="or" transform="translate(423.5,329)" s:width="30" s:height="25" id="cell_$reduce_or$SOC.v:57$1"><s:alias val="$or"/><s:alias val="$logic_or"/><s:alias val="$_OR_"/><s:alias val="$reduce_or"/><s:alias val="$reduce_bool"/><path d="M0,0 A30 25 0 0 1 0,25 A30 25 0 0 0 30,12.5 A30 25 0 0 0 0,0" class="cell_$reduce_or$SOC.v:57$1"/><g s:x="2" s:y="5" s:pid="A"/><g s:x="2" s:y="20" s:pid="B"/><g s:x="30" s:y="12.5" s:pid="Y"/></g><g s:type="generic" transform="translate(183,205)" s:width="30" s:height="40" id="cell_CPU"><text x="15" y="-4" class="nodelabel cell_CPU" s:attribute="ref">FemtoRV32</text><rect width="30" height="100" s:generic="body" class="cell_CPU"/><g transform="translate(0,10)" s:x="0" s:y="10" s:pid="in0" id="port_CPU~clk"><text x="-3" y="-4" class="inputPortLabel cell_CPU">clk</text></g><g transform="translate(0,30)" s:x="0" s:y="10" s:pid="in0" id="port_CPU~mem_rbusy"><text x="-3" y="-4" class="inputPortLabel cell_CPU">mem_rbusy</text></g><g transform="translate(0,50)" s:x="0" s:y="10" s:pid="in0" id="port_CPU~mem_rdata"><text x="-3" y="-4" class="inputPortLabel cell_CPU">mem_rdata</text></g><g transform="translate(0,70)" s:x="0" s:y="10" s:pid="in0" id="port_CPU~mem_wbusy"><text x="-3" y="-4" class="inputPortLabel cell_CPU">mem_wbusy</text></g><g transform="translate(0,90)" s:x="0" s:y="10" s:pid="in0" id="port_CPU~reset"><text x="-3" y="-4" class="inputPortLabel cell_CPU">reset</text></g><g transform="translate(30,10)" s:x="30" s:y="10" s:pid="out0" id="port_CPU~mem_addr"><text x="5" y="-4" style="fill:#000; stroke:none" class="cell_CPU">mem_addr</text></g><g transform="translate(30,30)" s:x="30" s:y="10" s:pid="out0" id="port_CPU~mem_rstrb"><text x="5" y="-4" style="fill:#000; stroke:none" class="cell_CPU">mem_rstrb</text></g><g transform="translate(30,50)" s:x="30" s:y="10" s:pid="out0" id="port_CPU~mem_wdata"><text x="5" y="-4" style="fill:#000; stroke:none" class="cell_CPU">mem_wdata</text></g><g transform="translate(30,70)" s:x="30" s:y="10" s:pid="out0" id="port_CPU~mem_wmask"><text x="5" y="-4" style="fill:#000; stroke:none" class="cell_CPU">mem_wmask</text></g></g><g s:type="generic" transform="translate(629,587)" s:width="30" s:height="40" id="cell_RAM"><text x="15" y="-4" class="nodelabel cell_RAM" s:attribute="ref">Memory</text><rect width="30" height="100" s:generic="body" class="cell_RAM"/><g transform="translate(0,10)" s:x="0" s:y="10" s:pid="in0" id="port_RAM~clk"><text x="-3" y="-4" class="inputPortLabel cell_RAM">clk</text></g><g transform="translate(0,30)" s:x="0" s:y="10" s:pid="in0" id="port_RAM~mem_addr"><text x="-3" y="-4" class="inputPortLabel cell_RAM">mem_addr</text></g><g transform="translate(0,50)" s:x="0" s:y="10" s:pid="in0" id="port_RAM~mem_rstrb"><text x="-3" y="-4" class="inputPortLabel cell_RAM">mem_rstrb</text></g><g transform="translate(0,70)" s:x="0" s:y="10" s:pid="in0" id="port_RAM~mem_wdata"><text x="-3" y="-4" class="inputPortLabel cell_RAM">mem_wdata</text></g><g transform="translate(0,90)" s:x="0" s:y="10" s:pid="in0" id="port_RAM~mem_wmask"><text x="-3" y="-4" class="inputPortLabel cell_RAM">mem_wmask</text></g><g transform="translate(30,10)" s:x="30" s:y="10" s:pid="out0" id="port_RAM~mem_rdata"><text x="5" y="-4" style="fill:#000; stroke:none" class="cell_RAM">mem_rdata</text></g></g><g s:type="generic" transform="translate(865,551.5)" s:width="30" s:height="40" id="cell_chip_select"><text x="15" y="-4" class="nodelabel cell_chip_select" s:attribute="ref">chip_select</text><rect width="30" height="160" s:generic="body" class="cell_chip_select"/><g transform="translate(0,10)" s:x="0" s:y="10" s:pid="in0" id="port_chip_select~chip0_dout"><text x="-3" y="-4" class="inputPortLabel cell_chip_select">chip0_dout</text></g><g transform="translate(0,30)" s:x="0" s:y="10" s:pid="in0" id="port_chip_select~chip1_dout"><text x="-3" y="-4" class="inputPortLabel cell_chip_select">chip1_dout</text></g><g transform="translate(0,50)" s:x="0" s:y="10" s:pid="in0" id="port_chip_select~chip2_dout"><text x="-3" y="-4" class="inputPortLabel cell_chip_select">chip2_dout</text></g><g transform="translate(0,70)" s:x="0" s:y="10" s:pid="in0" id="port_chip_select~chip3_dout"><text x="-3" y="-4" class="inputPortLabel cell_chip_select">chip3_dout</text></g><g transform="translate(0,90)" s:x="0" s:y="10" s:pid="in0" id="port_chip_select~chip4_dout"><text x="-3" y="-4" class="inputPortLabel cell_chip_select">chip4_dout</text></g><g transform="translate(0,110)" s:x="0" s:y="10" s:pid="in0" id="port_chip_select~chip5_dout"><text x="-3" y="-4" class="inputPortLabel cell_chip_select">chip5_dout</text></g><g transform="translate(0,130)" s:x="0" s:y="10" s:pid="in0" id="port_chip_select~chip6_dout"><text x="-3" y="-4" class="inputPortLabel cell_chip_select">chip6_dout</text></g><g transform="translate(0,150)" s:x="0" s:y="10" s:pid="in0" id="port_chip_select~mem_addr"><text x="-3" y="-4" class="inputPortLabel cell_chip_select">mem_addr</text></g><g transform="translate(30,10)" s:x="30" s:y="10" s:pid="out0" id="port_chip_select~cs"><text x="5" y="-4" style="fill:#000; stroke:none" class="cell_chip_select">cs</text></g><g transform="translate(30,30)" s:x="30" s:y="10" s:pid="out0" id="port_chip_select~mem_rdata"><text x="5" y="-4" style="fill:#000; stroke:none" class="cell_chip_select">mem_rdata</text></g></g><g s:type="generic" transform="translate(629.125,399)" s:width="30" s:height="40" id="cell_mult1"><text x="15" y="-4" class="nodelabel cell_mult1" s:attribute="ref">peripheral_mult</text><rect width="30" height="140" s:generic="body" class="cell_mult1"/><g transform="translate(0,10)" s:x="0" s:y="10" s:pid="in0" id="port_mult1~addr"><text x="-3" y="-4" class="inputPortLabel cell_mult1">addr</text></g><g transform="translate(0,30)" s:x="0" s:y="10" s:pid="in0" id="port_mult1~clk"><text x="-3" y="-4" class="inputPortLabel cell_mult1">clk</text></g><g transform="translate(0,50)" s:x="0" s:y="10" s:pid="in0" id="port_mult1~cs"><text x="-3" y="-4" class="inputPortLabel cell_mult1">cs</text></g><g transform="translate(0,70)" s:x="0" s:y="10" s:pid="in0" id="port_mult1~d_in"><text x="-3" y="-4" class="inputPortLabel cell_mult1">d_in</text></g><g transform="translate(0,90)" s:x="0" s:y="10" s:pid="in0" id="port_mult1~rd"><text x="-3" y="-4" class="inputPortLabel cell_mult1">rd</text></g><g transform="translate(0,110)" s:x="0" s:y="10" s:pid="in0" id="port_mult1~reset"><text x="-3" y="-4" class="inputPortLabel cell_mult1">reset</text></g><g transform="translate(0,130)" s:x="0" s:y="10" s:pid="in0" id="port_mult1~wr"><text x="-3" y="-4" class="inputPortLabel cell_mult1">wr</text></g><g transform="translate(30,10)" s:x="30" s:y="10" s:pid="out0" id="port_mult1~d_out"><text x="5" y="-4" style="fill:#000; stroke:none" class="cell_mult1">d_out</text></g></g><g s:type="generic" transform="translate(629.2727272727273,191)" s:width="30" s:height="40" id="cell_per_uart"><text x="15" y="-4" class="nodelabel cell_per_uart" s:attribute="ref">peripheral_uart</text><rect width="30" height="160" s:generic="body" class="cell_per_uart"/><g transform="translate(0,10)" s:x="0" s:y="10" s:pid="in0" id="port_per_uart~addr"><text x="-3" y="-4" class="inputPortLabel cell_per_uart">addr</text></g><g transform="translate(0,30)" s:x="0" s:y="10" s:pid="in0" id="port_per_uart~clk"><text x="-3" y="-4" class="inputPortLabel cell_per_uart">clk</text></g><g transform="translate(0,50)" s:x="0" s:y="10" s:pid="in0" id="port_per_uart~cs"><text x="-3" y="-4" class="inputPortLabel cell_per_uart">cs</text></g><g transform="translate(0,70)" s:x="0" s:y="10" s:pid="in0" id="port_per_uart~d_in"><text x="-3" y="-4" class="inputPortLabel cell_per_uart">d_in</text></g><g transform="translate(0,90)" s:x="0" s:y="10" s:pid="in0" id="port_per_uart~rd"><text x="-3" y="-4" class="inputPortLabel cell_per_uart">rd</text></g><g transform="translate(0,110)" s:x="0" s:y="10" s:pid="in0" id="port_per_uart~rst"><text x="-3" y="-4" class="inputPortLabel cell_per_uart">rst</text></g><g transform="translate(0,130)" s:x="0" s:y="10" s:pid="in0" id="port_per_uart~uart_rx"><text x="-3" y="-4" class="inputPortLabel cell_per_uart">uart_rx</text></g><g transform="translate(0,150)" s:x="0" s:y="10" s:pid="in0" id="port_per_uart~wr"><text x="-3" y="-4" class="inputPortLabel cell_per_uart">wr</text></g><g transform="translate(30,10)" s:x="30" s:y="10" s:pid="out0" id="port_per_uart~d_out"><text x="5" y="-4" style="fill:#000; stroke:none" class="cell_per_uart">d_out</text></g><g transform="translate(30,30)" s:x="30" s:y="10" s:pid="out0" id="port_per_uart~ledout"><text x="5" y="-4" style="fill:#000; stroke:none" class="cell_per_uart">ledout</text></g><g transform="translate(30,50)" s:x="30" s:y="10" s:pid="out0" id="port_per_uart~uart_tx"><text x="5" y="-4" style="fill:#000; stroke:none" class="cell_per_uart">uart_tx</text></g></g><g s:type="inputExt" transform="translate(22,89)" s:width="30" s:height="20" id="cell_clk"><text x="15" y="-4" class="nodelabel cell_clk" s:attribute="ref">clk</text><s:alias val="$_inputExt_"/><path d="M0,0 L0,20 L15,20 L30,10 L15,0 Z" class="cell_clk"/><g s:x="30" s:y="10" s:pid="Y"/></g><g s:type="inputExt" transform="translate(22,154)" s:width="30" s:height="20" id="cell_resetn"><text x="15" y="-4" class="nodelabel cell_resetn" s:attribute="ref">resetn</text><s:alias val="$_inputExt_"/><path d="M0,0 L0,20 L15,20 L30,10 L15,0 Z" class="cell_resetn"/><g s:x="30" s:y="10" s:pid="Y"/></g><g s:type="outputExt" transform="translate(865,166.5)" s:width="30" s:height="20" id="cell_LEDS"><text x="15" y="-4" class="nodelabel cell_LEDS" s:attribute="ref">LEDS</text><s:alias val="$_outputExt_"/><path d="M30,0 L30,20 L15,20 L0,10 L15,0 Z" class="cell_LEDS"/><g s:x="0" s:y="10" s:pid="A"/></g><g s:type="inputExt" transform="translate(424,112)" s:width="30" s:height="20" id="cell_RXD"><text x="15" y="-4" class="nodelabel cell_RXD" s:attribute="ref">RXD</text><s:alias val="$_inputExt_"/><path d="M0,0 L0,20 L15,20 L30,10 L15,0 Z" class="cell_RXD"/><g s:x="30" s:y="10" s:pid="Y"/></g><g s:type="outputExt" transform="translate(865,231.5)" s:width="30" s:height="20" id="cell_TXD"><text x="15" y="-4" class="nodelabel cell_TXD" s:attribute="ref">TXD</text><s:alias val="$_outputExt_"/><path d="M30,0 L30,20 L15,20 L0,10 L15,0 Z" class="cell_TXD"/><g s:x="0" s:y="10" s:pid="A"/></g><g s:type="constant" transform="translate(22,265.5)" s:width="30" s:height="20" id="cell_0"><text x="15" y="-4" class="nodelabel cell_0" s:attribute="ref">0</text><s:alias val="$_constant_"/><rect width="30" height="20" class="cell_0"/><g s:x="31" s:y="10" s:pid="Y"/></g><g s:type="join" transform="translate(189.75,614.5)" s:width="4" s:height="40" id="cell_$join$,7,7,7,7,"><rect width="5" height="80" class="splitjoinBody" s:generic="body"/><s:alias val="$_join_"/><g s:x="5" s:y="20" s:pid="out"/><g transform="translate(0,10)" s:x="0" s:y="10" s:pid="in0"><text x="-3" y="-4" class="inputPortLabel">0</text></g><g transform="translate(0,30)" s:x="0" s:y="10" s:pid="in0"><text x="-3" y="-4" class="inputPortLabel">1</text></g><g transform="translate(0,50)" s:x="0" s:y="10" s:pid="in0"><text x="-3" y="-4" class="inputPortLabel">2</text></g><g transform="translate(0,70)" s:x="0" s:y="10" s:pid="in0"><text x="-3" y="-4" class="inputPortLabel">3</text></g></g><g s:type="split" transform="translate(46,654.5)" s:width="5" s:height="40" id="cell_$split$,212,213,214,215,216,217,7,"><rect width="5" height="60" class="splitjoinBody" s:generic="body"/><s:alias val="$_split_"/><g s:x="0" s:y="20" s:pid="in"/><g transform="translate(4,10)" s:x="4" s:y="10" s:pid="out0"><text x="5" y="-4">6</text></g><g transform="translate(4,30)" s:x="4" s:y="10" s:pid="out0"><text x="5" y="-4">2</text></g><g transform="translate(4,50)" s:x="4" s:y="10" s:pid="out0"><text x="5" y="-4">0</text></g></g><line x1="51" x2="88" y1="665" y2="665" class="net_7 width_1" style="stroke-width: 1"/><line x1="88" x2="88" y1="665" y2="589" class="net_7 width_1" style="stroke-width: 1"/><circle cx="88" cy="665" r="2" style="fill:#000" class="net_7 width_1"/><line x1="88" x2="423.6666666666667" y1="589" y2="589" class="net_7 width_1" style="stroke-width: 1"/><line x1="51" x2="88" y1="665" y2="665" class="net_7 width_1" style="stroke-width: 1"/><line x1="88" x2="88" y1="665" y2="625" class="net_7 width_1" style="stroke-width: 1"/><circle cx="88" cy="625" r="2" style="fill:#000" class="net_7 width_1"/><line x1="88" x2="189.75" y1="625" y2="625" class="net_7 width_1" style="stroke-width: 1"/><line x1="51" x2="88" y1="665" y2="665" class="net_7 width_1" style="stroke-width: 1"/><line x1="88" x2="88" y1="665" y2="645" class="net_7 width_1" style="stroke-width: 1"/><circle cx="88" cy="645" r="2" style="fill:#000" class="net_7 width_1"/><line x1="88" x2="189.75" y1="645" y2="645" class="net_7 width_1" style="stroke-width: 1"/><line x1="51" x2="189.75" y1="665" y2="665" class="net_7 width_1" style="stroke-width: 1"/><line x1="51" x2="88" y1="665" y2="665" class="net_7 width_1" style="stroke-width: 1"/><line x1="88" x2="88" y1="665" y2="704.5" class="net_7 width_1" style="stroke-width: 1"/><line x1="88" x2="190.25" y1="704.5" y2="704.5" class="net_7 width_1" style="stroke-width: 1"/><line x1="190.25" x2="190.25" y1="704.5" y2="685.5" class="net_7 width_1" style="stroke-width: 1"/><line x1="214" x2="309" y1="235.5" y2="235.5" class="net_8 width_1" style="stroke-width: 1"/><line x1="309" x2="309" y1="235.5" y2="604" class="net_8 width_1" style="stroke-width: 1"/><circle cx="309" cy="235.5" r="2" style="fill:#000" class="net_8 width_1"/><line x1="309" x2="423.6666666666667" y1="604" y2="604" class="net_8 width_1" style="stroke-width: 1"/><line x1="214" x2="309" y1="235.5" y2="235.5" class="net_8 width_1" style="stroke-width: 1"/><line x1="309" x2="309" y1="235.5" y2="489.5" class="net_8 width_1" style="stroke-width: 1"/><circle cx="309" cy="489.5" r="2" style="fill:#000" class="net_8 width_1"/><line x1="309" x2="629.125" y1="489.5" y2="489.5" class="net_8 width_1" style="stroke-width: 1"/><line x1="214" x2="309" y1="235.5" y2="235.5" class="net_8 width_1" style="stroke-width: 1"/><line x1="309" x2="309" y1="235.5" y2="91" class="net_8 width_1" style="stroke-width: 1"/><line x1="309" x2="524" y1="91" y2="91" class="net_8 width_1" style="stroke-width: 1"/><line x1="524" x2="524" y1="91" y2="281.5" class="net_8 width_1" style="stroke-width: 1"/><line x1="524" x2="629.2727272727273" y1="281.5" y2="281.5" class="net_8 width_1" style="stroke-width: 1"/><line x1="195.75" x2="333" y1="635" y2="635" class="net_7,7,7,7 width_4" style="stroke-width: 2"/><line x1="333" x2="333" y1="635" y2="670" class="net_7,7,7,7 width_4" style="stroke-width: 2"/><line x1="333" x2="358" y1="670" y2="670" class="net_7,7,7,7 width_4" style="stroke-width: 2"/><line x1="214" x2="289" y1="275.5" y2="275.5" class="net_10,11,12,13 width_4" style="stroke-width: 2"/><line x1="289" x2="289" y1="275.5" y2="685" class="net_10,11,12,13 width_4" style="stroke-width: 2"/><line x1="289" x2="358" y1="685" y2="685" class="net_10,11,12,13 width_4" style="stroke-width: 2"/><line x1="214" x2="289" y1="275.5" y2="275.5" class="net_10,11,12,13 width_4" style="stroke-width: 2"/><line x1="289" x2="289" y1="275.5" y2="334" class="net_10,11,12,13 width_4" style="stroke-width: 2"/><circle cx="289" cy="334" r="3" style="fill:#000" class="net_10,11,12,13 width_4"/><line x1="289" x2="425.5" y1="334" y2="334" class="net_10,11,12,13 width_4" style="stroke-width: 2"/><line x1="52" x2="423" y1="164" y2="164" class="net_3 width_1" style="stroke-width: 1"/><line x1="52" x2="88" y1="164" y2="164" class="net_3 width_1" style="stroke-width: 1"/><line x1="88" x2="88" y1="164" y2="295.5" class="net_3 width_1" style="stroke-width: 1"/><circle cx="88" cy="164" r="2" style="fill:#000" class="net_3 width_1"/><line x1="88" x2="183" y1="295.5" y2="295.5" class="net_3 width_1" style="stroke-width: 1"/><line x1="52" x2="108" y1="99" y2="99" class="net_2 width_1" style="stroke-width: 1"/><line x1="108" x2="108" y1="99" y2="215.5" class="net_2 width_1" style="stroke-width: 1"/><circle cx="108" cy="99" r="2" style="fill:#000" class="net_2 width_1"/><circle cx="108" cy="215.5" r="2" style="fill:#000" class="net_2 width_1"/><line x1="108" x2="183" y1="215.5" y2="215.5" class="net_2 width_1" style="stroke-width: 1"/><line x1="52" x2="108" y1="99" y2="99" class="net_2 width_1" style="stroke-width: 1"/><line x1="108" x2="108" y1="99" y2="558" class="net_2 width_1" style="stroke-width: 1"/><line x1="108" x2="494" y1="558" y2="558" class="net_2 width_1" style="stroke-width: 1"/><line x1="494" x2="494" y1="558" y2="597.5" class="net_2 width_1" style="stroke-width: 1"/><line x1="494" x2="629" y1="597.5" y2="597.5" class="net_2 width_1" style="stroke-width: 1"/><line x1="52" x2="108" y1="99" y2="99" class="net_2 width_1" style="stroke-width: 1"/><line x1="108" x2="108" y1="99" y2="184" class="net_2 width_1" style="stroke-width: 1"/><line x1="108" x2="484" y1="184" y2="184" class="net_2 width_1" style="stroke-width: 1"/><line x1="484" x2="484" y1="184" y2="429.5" class="net_2 width_1" style="stroke-width: 1"/><circle cx="108" cy="184" r="2" style="fill:#000" class="net_2 width_1"/><line x1="484" x2="629.125" y1="429.5" y2="429.5" class="net_2 width_1" style="stroke-width: 1"/><line x1="52" x2="108" y1="99" y2="99" class="net_2 width_1" style="stroke-width: 1"/><line x1="108" x2="108" y1="99" y2="49" class="net_2 width_1" style="stroke-width: 1"/><line x1="108" x2="554" y1="49" y2="49" class="net_2 width_1" style="stroke-width: 1"/><line x1="554" x2="554" y1="49" y2="221.5" class="net_2 width_1" style="stroke-width: 1"/><line x1="554" x2="629.2727272727273" y1="221.5" y2="221.5" class="net_2 width_1" style="stroke-width: 1"/><line x1="53" x2="118" y1="275.5" y2="275.5" class="net_218 width_1" style="stroke-width: 1"/><line x1="118" x2="118" y1="275.5" y2="235.5" class="net_218 width_1" style="stroke-width: 1"/><circle cx="118" cy="275.5" r="2" style="fill:#000" class="net_218 width_1"/><line x1="118" x2="183" y1="235.5" y2="235.5" class="net_218 width_1" style="stroke-width: 1"/><line x1="53" x2="183" y1="275.5" y2="275.5" class="net_218 width_1" style="stroke-width: 1"/><line x1="896" x2="971" y1="582" y2="582" class="net_52,53,54,55,56,57,58,59,60,61,62,63,64,65,66,67,68,69,70,71,72,73,74,75,76,77,78,79,80,81,82,83 width_32" style="stroke-width: 2"/><line x1="971" x2="971" y1="582" y2="16" class="net_52,53,54,55,56,57,58,59,60,61,62,63,64,65,66,67,68,69,70,71,72,73,74,75,76,77,78,79,80,81,82,83 width_32" style="stroke-width: 2"/><line x1="971" x2="98" y1="16" y2="16" class="net_52,53,54,55,56,57,58,59,60,61,62,63,64,65,66,67,68,69,70,71,72,73,74,75,76,77,78,79,80,81,82,83 width_32" style="stroke-width: 2"/><line x1="98" x2="98" y1="16" y2="255.5" class="net_52,53,54,55,56,57,58,59,60,61,62,63,64,65,66,67,68,69,70,71,72,73,74,75,76,77,78,79,80,81,82,83 width_32" style="stroke-width: 2"/><line x1="98" x2="183" y1="255.5" y2="255.5" class="net_52,53,54,55,56,57,58,59,60,61,62,63,64,65,66,67,68,69,70,71,72,73,74,75,76,77,78,79,80,81,82,83 width_32" style="stroke-width: 2"/><line x1="214" x2="279" y1="215.5" y2="215.5" class="net_20,21,22,23,24,25,26,27,28,29,30,31,32,33,34,35,36,37,38,39,40,41,42,43,44,45,46,47,48,49,50,51 width_32" style="stroke-width: 2"/><line x1="279" x2="279" y1="215.5" y2="573" class="net_20,21,22,23,24,25,26,27,28,29,30,31,32,33,34,35,36,37,38,39,40,41,42,43,44,45,46,47,48,49,50,51 width_32" style="stroke-width: 2"/><line x1="279" x2="484" y1="573" y2="573" class="net_20,21,22,23,24,25,26,27,28,29,30,31,32,33,34,35,36,37,38,39,40,41,42,43,44,45,46,47,48,49,50,51 width_32" style="stroke-width: 2"/><line x1="484" x2="484" y1="573" y2="617.5" class="net_20,21,22,23,24,25,26,27,28,29,30,31,32,33,34,35,36,37,38,39,40,41,42,43,44,45,46,47,48,49,50,51 width_32" style="stroke-width: 2"/><circle cx="279" cy="215.5" r="3" style="fill:#000" class="net_20,21,22,23,24,25,26,27,28,29,30,31,32,33,34,35,36,37,38,39,40,41,42,43,44,45,46,47,48,49,50,51 width_32"/><circle cx="279" cy="573" r="3" style="fill:#000" class="net_20,21,22,23,24,25,26,27,28,29,30,31,32,33,34,35,36,37,38,39,40,41,42,43,44,45,46,47,48,49,50,51 width_32"/><line x1="484" x2="629" y1="617.5" y2="617.5" class="net_20,21,22,23,24,25,26,27,28,29,30,31,32,33,34,35,36,37,38,39,40,41,42,43,44,45,46,47,48,49,50,51 width_32" style="stroke-width: 2"/><line x1="214" x2="279" y1="215.5" y2="215.5" class="net_20,21,22,23,24,25,26,27,28,29,30,31,32,33,34,35,36,37,38,39,40,41,42,43,44,45,46,47,48,49,50,51 width_32" style="stroke-width: 2"/><line x1="279" x2="279" y1="215.5" y2="702" class="net_20,21,22,23,24,25,26,27,28,29,30,31,32,33,34,35,36,37,38,39,40,41,42,43,44,45,46,47,48,49,50,51 width_32" style="stroke-width: 2"/><line x1="279" x2="865" y1="702" y2="702" class="net_20,21,22,23,24,25,26,27,28,29,30,31,32,33,34,35,36,37,38,39,40,41,42,43,44,45,46,47,48,49,50,51 width_32" style="stroke-width: 2"/><line x1="214" x2="279" y1="215.5" y2="215.5" class="net_20,21,22,23,24,25,26,27,28,29,30,31,32,33,34,35,36,37,38,39,40,41,42,43,44,45,46,47,48,49,50,51 width_32" style="stroke-width: 2"/><line x1="279" x2="279" y1="215.5" y2="143" class="net_20,21,22,23,24,25,26,27,28,29,30,31,32,33,34,35,36,37,38,39,40,41,42,43,44,45,46,47,48,49,50,51 width_32" style="stroke-width: 2"/><line x1="279" x2="504" y1="143" y2="143" class="net_20,21,22,23,24,25,26,27,28,29,30,31,32,33,34,35,36,37,38,39,40,41,42,43,44,45,46,47,48,49,50,51 width_32" style="stroke-width: 2"/><line x1="504" x2="504" y1="143" y2="409.5" class="net_20,21,22,23,24,25,26,27,28,29,30,31,32,33,34,35,36,37,38,39,40,41,42,43,44,45,46,47,48,49,50,51 width_32" style="stroke-width: 2"/><circle cx="279" cy="143" r="3" style="fill:#000" class="net_20,21,22,23,24,25,26,27,28,29,30,31,32,33,34,35,36,37,38,39,40,41,42,43,44,45,46,47,48,49,50,51 width_32"/><line x1="504" x2="629.125" y1="409.5" y2="409.5" class="net_20,21,22,23,24,25,26,27,28,29,30,31,32,33,34,35,36,37,38,39,40,41,42,43,44,45,46,47,48,49,50,51 width_32" style="stroke-width: 2"/><line x1="214" x2="279" y1="215.5" y2="215.5" class="net_20,21,22,23,24,25,26,27,28,29,30,31,32,33,34,35,36,37,38,39,40,41,42,43,44,45,46,47,48,49,50,51 width_32" style="stroke-width: 2"/><line x1="279" x2="279" y1="215.5" y2="33" class="net_20,21,22,23,24,25,26,27,28,29,30,31,32,33,34,35,36,37,38,39,40,41,42,43,44,45,46,47,48,49,50,51 width_32" style="stroke-width: 2"/><line x1="279" x2="564" y1="33" y2="33" class="net_20,21,22,23,24,25,26,27,28,29,30,31,32,33,34,35,36,37,38,39,40,41,42,43,44,45,46,47,48,49,50,51 width_32" style="stroke-width: 2"/><line x1="564" x2="564" y1="33" y2="201.5" class="net_20,21,22,23,24,25,26,27,28,29,30,31,32,33,34,35,36,37,38,39,40,41,42,43,44,45,46,47,48,49,50,51 width_32" style="stroke-width: 2"/><line x1="564" x2="629.2727272727273" y1="201.5" y2="201.5" class="net_20,21,22,23,24,25,26,27,28,29,30,31,32,33,34,35,36,37,38,39,40,41,42,43,44,45,46,47,48,49,50,51 width_32" style="stroke-width: 2"/><line x1="453.6666666666667" x2="474" y1="596.5" y2="596.5" class="net_9 width_1" style="stroke-width: 1"/><line x1="474" x2="474" y1="596.5" y2="637.5" class="net_9 width_1" style="stroke-width: 1"/><line x1="474" x2="629" y1="637.5" y2="637.5" class="net_9 width_1" style="stroke-width: 1"/><line x1="214" x2="299" y1="255.5" y2="255.5" class="net_84,85,86,87,88,89,90,91,92,93,94,95,96,97,98,99,100,101,102,103,104,105,106,107,108,109,110,111,112,113,114,115 width_32" style="stroke-width: 2"/><line x1="299" x2="299" y1="255.5" y2="620" class="net_84,85,86,87,88,89,90,91,92,93,94,95,96,97,98,99,100,101,102,103,104,105,106,107,108,109,110,111,112,113,114,115 width_32" style="stroke-width: 2"/><line x1="299" x2="464" y1="620" y2="620" class="net_84,85,86,87,88,89,90,91,92,93,94,95,96,97,98,99,100,101,102,103,104,105,106,107,108,109,110,111,112,113,114,115 width_32" style="stroke-width: 2"/><line x1="464" x2="464" y1="620" y2="657.5" class="net_84,85,86,87,88,89,90,91,92,93,94,95,96,97,98,99,100,101,102,103,104,105,106,107,108,109,110,111,112,113,114,115 width_32" style="stroke-width: 2"/><circle cx="299" cy="255.5" r="3" style="fill:#000" class="net_84,85,86,87,88,89,90,91,92,93,94,95,96,97,98,99,100,101,102,103,104,105,106,107,108,109,110,111,112,113,114,115 width_32"/><line x1="464" x2="629" y1="657.5" y2="657.5" class="net_84,85,86,87,88,89,90,91,92,93,94,95,96,97,98,99,100,101,102,103,104,105,106,107,108,109,110,111,112,113,114,115 width_32" style="stroke-width: 2"/><line x1="214" x2="299" y1="255.5" y2="255.5" class="net_84,85,86,87,88,89,90,91,92,93,94,95,96,97,98,99,100,101,102,103,104,105,106,107,108,109,110,111,112,113,114,115 width_32" style="stroke-width: 2"/><line x1="299" x2="299" y1="255.5" y2="469.5" class="net_84,85,86,87,88,89,90,91,92,93,94,95,96,97,98,99,100,101,102,103,104,105,106,107,108,109,110,111,112,113,114,115 width_32" style="stroke-width: 2"/><circle cx="299" cy="469.5" r="3" style="fill:#000" class="net_84,85,86,87,88,89,90,91,92,93,94,95,96,97,98,99,100,101,102,103,104,105,106,107,108,109,110,111,112,113,114,115 width_32"/><line x1="299" x2="629.125" y1="469.5" y2="469.5" class="net_84,85,86,87,88,89,90,91,92,93,94,95,96,97,98,99,100,101,102,103,104,105,106,107,108,109,110,111,112,113,114,115 width_32" style="stroke-width: 2"/><line x1="214" x2="299" y1="255.5" y2="255.5" class="net_84,85,86,87,88,89,90,91,92,93,94,95,96,97,98,99,100,101,102,103,104,105,106,107,108,109,110,111,112,113,114,115 width_32" style="stroke-width: 2"/><line x1="299" x2="299" y1="255.5" y2="75" class="net_84,85,86,87,88,89,90,91,92,93,94,95,96,97,98,99,100,101,102,103,104,105,106,107,108,109,110,111,112,113,114,115 width_32" style="stroke-width: 2"/><line x1="299" x2="534" y1="75" y2="75" class="net_84,85,86,87,88,89,90,91,92,93,94,95,96,97,98,99,100,101,102,103,104,105,106,107,108,109,110,111,112,113,114,115 width_32" style="stroke-width: 2"/><line x1="534" x2="534" y1="75" y2="261.5" class="net_84,85,86,87,88,89,90,91,92,93,94,95,96,97,98,99,100,101,102,103,104,105,106,107,108,109,110,111,112,113,114,115 width_32" style="stroke-width: 2"/><line x1="534" x2="629.2727272727273" y1="261.5" y2="261.5" class="net_84,85,86,87,88,89,90,91,92,93,94,95,96,97,98,99,100,101,102,103,104,105,106,107,108,109,110,111,112,113,114,115 width_32" style="stroke-width: 2"/><line x1="388" x2="629" y1="677.5" y2="677.5" class="net_14,15,16,17 width_4" style="stroke-width: 2"/><line x1="660.2727272727273" x2="735" y1="201.5" y2="201.5" class="net_148,149,150,151,152,153,154,155,156,157,158,159,160,161,162,163,164,165,166,167,168,169,170,171,172,173,174,175,176,177,178,179 width_32" style="stroke-width: 2"/><line x1="735" x2="735" y1="201.5" y2="389.5" class="net_148,149,150,151,152,153,154,155,156,157,158,159,160,161,162,163,164,165,166,167,168,169,170,171,172,173,174,175,176,177,178,179 width_32" style="stroke-width: 2"/><line x1="735" x2="794" y1="389.5" y2="389.5" class="net_148,149,150,151,152,153,154,155,156,157,158,159,160,161,162,163,164,165,166,167,168,169,170,171,172,173,174,175,176,177,178,179 width_32" style="stroke-width: 2"/><line x1="794" x2="794" y1="389.5" y2="562" class="net_148,149,150,151,152,153,154,155,156,157,158,159,160,161,162,163,164,165,166,167,168,169,170,171,172,173,174,175,176,177,178,179 width_32" style="stroke-width: 2"/><line x1="794" x2="865" y1="562" y2="562" class="net_148,149,150,151,152,153,154,155,156,157,158,159,160,161,162,163,164,165,166,167,168,169,170,171,172,173,174,175,176,177,178,179 width_32" style="stroke-width: 2"/><line x1="774" x2="774" y1="558.5" y2="582" class="net_ width_1" style="stroke-width: 1"/><circle cx="774" cy="582" r="2" style="fill:#000" class="net_ width_1"/><line x1="774" x2="865" y1="582" y2="582" class="net_ width_1" style="stroke-width: 1"/><line x1="774" x2="774" y1="558.5" y2="622" class="net_ width_1" style="stroke-width: 1"/><circle cx="774" cy="622" r="2" style="fill:#000" class="net_ width_1"/><line x1="774" x2="865" y1="622" y2="622" class="net_ width_1" style="stroke-width: 1"/><line x1="774" x2="774" y1="558.5" y2="642" class="net_ width_1" style="stroke-width: 1"/><circle cx="774" cy="642" r="2" style="fill:#000" class="net_ width_1"/><line x1="774" x2="865" y1="642" y2="642" class="net_ width_1" style="stroke-width: 1"/><line x1="774" x2="774" y1="558.5" y2="662" class="net_ width_1" style="stroke-width: 1"/><line x1="774" x2="865" y1="662" y2="662" class="net_ width_1" style="stroke-width: 1"/><line x1="660.125" x2="784" y1="409.5" y2="409.5" class="net_180,181,182,183,184,185,186,187,188,189,190,191,192,193,194,195,196,197,198,199,200,201,202,203,204,205,206,207,208,209,210,211 width_32" style="stroke-width: 2"/><line x1="784" x2="784" y1="409.5" y2="602" class="net_180,181,182,183,184,185,186,187,188,189,190,191,192,193,194,195,196,197,198,199,200,201,202,203,204,205,206,207,208,209,210,211 width_32" style="stroke-width: 2"/><line x1="784" x2="865" y1="602" y2="602" class="net_180,181,182,183,184,185,186,187,188,189,190,191,192,193,194,195,196,197,198,199,200,201,202,203,204,205,206,207,208,209,210,211 width_32" style="stroke-width: 2"/><line x1="660" x2="764" y1="597.5" y2="597.5" class="net_116,117,118,119,120,121,122,123,124,125,126,127,128,129,130,131,132,133,134,135,136,137,138,139,140,141,142,143,144,145,146,147 width_32" style="stroke-width: 2"/><line x1="764" x2="764" y1="597.5" y2="682" class="net_116,117,118,119,120,121,122,123,124,125,126,127,128,129,130,131,132,133,134,135,136,137,138,139,140,141,142,143,144,145,146,147 width_32" style="stroke-width: 2"/><line x1="764" x2="865" y1="682" y2="682" class="net_116,117,118,119,120,121,122,123,124,125,126,127,128,129,130,131,132,133,134,135,136,137,138,139,140,141,142,143,144,145,146,147 width_32" style="stroke-width: 2"/><line x1="51" x2="68" y1="685" y2="685" class="net_214 width_1" style="stroke-width: 1"/><line x1="68" x2="68" y1="685" y2="318" class="net_214 width_1" style="stroke-width: 1"/><line x1="68" x2="474" y1="318" y2="318" class="net_214 width_1" style="stroke-width: 1"/><line x1="474" x2="474" y1="318" y2="449.5" class="net_214 width_1" style="stroke-width: 1"/><line x1="474" x2="629.125" y1="449.5" y2="449.5" class="net_214 width_1" style="stroke-width: 1"/><line x1="451" x2="494" y1="164" y2="164" class="net_18 width_1" style="stroke-width: 1"/><line x1="494" x2="494" y1="164" y2="509.5" class="net_18 width_1" style="stroke-width: 1"/><line x1="494" x2="629.125" y1="509.5" y2="509.5" class="net_18 width_1" style="stroke-width: 1"/><line x1="451" x2="494" y1="164" y2="164" class="net_18 width_1" style="stroke-width: 1"/><line x1="494" x2="494" y1="164" y2="301.5" class="net_18 width_1" style="stroke-width: 1"/><circle cx="494" cy="301.5" r="2" style="fill:#000" class="net_18 width_1"/><line x1="494" x2="629.2727272727273" y1="301.5" y2="301.5" class="net_18 width_1" style="stroke-width: 1"/><line x1="453.5" x2="464" y1="341.5" y2="341.5" class="net_19 width_1" style="stroke-width: 1"/><line x1="464" x2="464" y1="341.5" y2="529.5" class="net_19 width_1" style="stroke-width: 1"/><circle cx="464" cy="341.5" r="2" style="fill:#000" class="net_19 width_1"/><line x1="464" x2="629.125" y1="529.5" y2="529.5" class="net_19 width_1" style="stroke-width: 1"/><line x1="453.5" x2="629.2727272727273" y1="341.5" y2="341.5" class="net_19 width_1" style="stroke-width: 1"/><line x1="51" x2="78" y1="705" y2="705" class="net_212 width_1" style="stroke-width: 1"/><line x1="78" x2="78" y1="705" y2="60" class="net_212 width_1" style="stroke-width: 1"/><line x1="78" x2="544" y1="60" y2="60" class="net_212 width_1" style="stroke-width: 1"/><line x1="544" x2="544" y1="60" y2="241.5" class="net_212 width_1" style="stroke-width: 1"/><line x1="544" x2="629.2727272727273" y1="241.5" y2="241.5" class="net_212 width_1" style="stroke-width: 1"/><line x1="454" x2="514" y1="122" y2="122" class="net_5 width_1" style="stroke-width: 1"/><line x1="514" x2="514" y1="122" y2="321.5" class="net_5 width_1" style="stroke-width: 1"/><line x1="514" x2="629.2727272727273" y1="321.5" y2="321.5" class="net_5 width_1" style="stroke-width: 1"/><line x1="660.2727272727273" x2="725" y1="221.5" y2="221.5" class="net_4 width_1" style="stroke-width: 1"/><line x1="725" x2="725" y1="221.5" y2="176.5" class="net_4 width_1" style="stroke-width: 1"/><line x1="725" x2="865" y1="176.5" y2="176.5" class="net_4 width_1" style="stroke-width: 1"/><line x1="660.2727272727273" x2="865" y1="241.5" y2="241.5" class="net_6 width_1" style="stroke-width: 1"/><line x1="896" x2="961" y1="562" y2="562" class="net_212,213,214,215,216,217,7 width_7" style="stroke-width: 2"/><line x1="961" x2="961" y1="562" y2="724.5" class="net_212,213,214,215,216,217,7 width_7" style="stroke-width: 2"/><line x1="961" x2="12" y1="724.5" y2="724.5" class="net_212,213,214,215,216,217,7 width_7" style="stroke-width: 2"/><line x1="12" x2="12" y1="724.5" y2="675" class="net_212,213,214,215,216,217,7 width_7" style="stroke-width: 2"/><line x1="12" x2="46" y1="675" y2="675" class="net_212,213,214,215,216,217,7 width_7" style="stroke-width: 2"/><rect x="320" y="630" width="16" height="9" class="net_7,7,7,7 width_4 busLabel_4" style="fill: white; stroke: none"/><text x="319" y="638" class="net_7,7,7,7 width_4 busLabel_4">/4/</text><rect x="320" y="329" width="16" height="9" class="net_10,11,12,13 width_4 busLabel_4" style="fill: white; stroke: none"/><text x="319" y="337" class="net_10,11,12,13 width_4 busLabel_4">/4/</text><rect x="320" y="329" width="16" height="9" class="net_10,11,12,13 width_4 busLabel_4" style="fill: white; stroke: none"/><text x="319" y="337" class="net_10,11,12,13 width_4 busLabel_4">/4/</text><rect x="437.5" y="11" width="22" height="9" class="net_52,53,54,55,56,57,58,59,60,61,62,63,64,65,66,67,68,69,70,71,72,73,74,75,76,77,78,79,80,81,82,83 width_32 busLabel_32" style="fill: white; stroke: none"/><text x="436.5" y="19" class="net_52,53,54,55,56,57,58,59,60,61,62,63,64,65,66,67,68,69,70,71,72,73,74,75,76,77,78,79,80,81,82,83 width_32 busLabel_32">/32/</text><rect x="372" y="28" width="22" height="9" class="net_20,21,22,23,24,25,26,27,28,29,30,31,32,33,34,35,36,37,38,39,40,41,42,43,44,45,46,47,48,49,50,51 width_32 busLabel_32" style="fill: white; stroke: none"/><text x="371" y="36" class="net_20,21,22,23,24,25,26,27,28,29,30,31,32,33,34,35,36,37,38,39,40,41,42,43,44,45,46,47,48,49,50,51 width_32 busLabel_32">/32/</text><rect x="372" y="28" width="22" height="9" class="net_20,21,22,23,24,25,26,27,28,29,30,31,32,33,34,35,36,37,38,39,40,41,42,43,44,45,46,47,48,49,50,51 width_32 busLabel_32" style="fill: white; stroke: none"/><text x="371" y="36" class="net_20,21,22,23,24,25,26,27,28,29,30,31,32,33,34,35,36,37,38,39,40,41,42,43,44,45,46,47,48,49,50,51 width_32 busLabel_32">/32/</text><rect x="372" y="28" width="22" height="9" class="net_20,21,22,23,24,25,26,27,28,29,30,31,32,33,34,35,36,37,38,39,40,41,42,43,44,45,46,47,48,49,50,51 width_32 busLabel_32" style="fill: white; stroke: none"/><text x="371" y="36" class="net_20,21,22,23,24,25,26,27,28,29,30,31,32,33,34,35,36,37,38,39,40,41,42,43,44,45,46,47,48,49,50,51 width_32 busLabel_32">/32/</text><rect x="372" y="28" width="22" height="9" class="net_20,21,22,23,24,25,26,27,28,29,30,31,32,33,34,35,36,37,38,39,40,41,42,43,44,45,46,47,48,49,50,51 width_32 busLabel_32" style="fill: white; stroke: none"/><text x="371" y="36" class="net_20,21,22,23,24,25,26,27,28,29,30,31,32,33,34,35,36,37,38,39,40,41,42,43,44,45,46,47,48,49,50,51 width_32 busLabel_32">/32/</text><rect x="372" y="70" width="22" height="9" class="net_84,85,86,87,88,89,90,91,92,93,94,95,96,97,98,99,100,101,102,103,104,105,106,107,108,109,110,111,112,113,114,115 width_32 busLabel_32" style="fill: white; stroke: none"/><text x="371" y="78" class="net_84,85,86,87,88,89,90,91,92,93,94,95,96,97,98,99,100,101,102,103,104,105,106,107,108,109,110,111,112,113,114,115 width_32 busLabel_32">/32/</text><rect x="372" y="70" width="22" height="9" class="net_84,85,86,87,88,89,90,91,92,93,94,95,96,97,98,99,100,101,102,103,104,105,106,107,108,109,110,111,112,113,114,115 width_32 busLabel_32" style="fill: white; stroke: none"/><text x="371" y="78" class="net_84,85,86,87,88,89,90,91,92,93,94,95,96,97,98,99,100,101,102,103,104,105,106,107,108,109,110,111,112,113,114,115 width_32 busLabel_32">/32/</text><rect x="372" y="70" width="22" height="9" class="net_84,85,86,87,88,89,90,91,92,93,94,95,96,97,98,99,100,101,102,103,104,105,106,107,108,109,110,111,112,113,114,115 width_32 busLabel_32" style="fill: white; stroke: none"/><text x="371" y="78" class="net_84,85,86,87,88,89,90,91,92,93,94,95,96,97,98,99,100,101,102,103,104,105,106,107,108,109,110,111,112,113,114,115 width_32 busLabel_32">/32/</text><rect x="437.5" y="672.5" width="16" height="9" class="net_14,15,16,17 width_4 busLabel_4" style="fill: white; stroke: none"/><text x="436.5" y="680.5" class="net_14,15,16,17 width_4 busLabel_4">/4/</text><rect x="751" y="384.5" width="22" height="9" class="net_148,149,150,151,152,153,154,155,156,157,158,159,160,161,162,163,164,165,166,167,168,169,170,171,172,173,174,175,176,177,178,179 width_32 busLabel_32" style="fill: white; stroke: none"/><text x="750" y="392.5" class="net_148,149,150,151,152,153,154,155,156,157,158,159,160,161,162,163,164,165,166,167,168,169,170,171,172,173,174,175,176,177,178,179 width_32 busLabel_32">/32/</text><rect x="751" y="404.5" width="22" height="9" class="net_180,181,182,183,184,185,186,187,188,189,190,191,192,193,194,195,196,197,198,199,200,201,202,203,204,205,206,207,208,209,210,211 width_32 busLabel_32" style="fill: white; stroke: none"/><text x="750" y="412.5" class="net_180,181,182,183,184,185,186,187,188,189,190,191,192,193,194,195,196,197,198,199,200,201,202,203,204,205,206,207,208,209,210,211 width_32 busLabel_32">/32/</text><rect x="751" y="592.5" width="22" height="9" class="net_116,117,118,119,120,121,122,123,124,125,126,127,128,129,130,131,132,133,134,135,136,137,138,139,140,141,142,143,144,145,146,147 width_32 busLabel_32" style="fill: white; stroke: none"/><text x="750" y="600.5" class="net_116,117,118,119,120,121,122,123,124,125,126,127,128,129,130,131,132,133,134,135,136,137,138,139,140,141,142,143,144,145,146,147 width_32 busLabel_32">/32/</text><rect x="372" y="719.5" width="16" height="9" class="net_212,213,214,215,216,217,7 width_7 busLabel_7" style="fill: white; stroke: none"/><text x="371" y="727.5" class="net_212,213,214,215,216,217,7 width_7 busLabel_7">/7/</text></svg>