<svg xmlns="http://www.w3.org/2000/svg" xmlns:xlink="http://www.w3.org/1999/xlink" xmlns:s="https://github.com/nturley/netlistsvg" width="1277" height="705.5">
  <rect width="100%" height="100%" fill="white"/><style>svg {
  stroke:#000;
  fill:none;
}
text {
  fill:#000;
  stroke:none;
  font-size:10px;
  font-weight: bold;
  font-family: "Courier New", monospace;
}
line {
    stroke-linecap: round;
}
.nodelabel {
  text-anchor: middle;
}
.inputPortLabel {
  text-anchor: end;
}
.splitjoinBody {
  fill:#000;
}</style><g s:type="and" transform="translate(735.6666666666666,78.5)" s:width="30" s:height="25" id="cell_$and$SOC.v:33$2"><s:alias val="$and"/><s:alias val="$logic_and"/><s:alias val="$_AND_"/><s:alias val="$reduce_and"/><path d="M0,0 L0,25 L15,25 A15 12.5 0 0 0 15,0 Z" class="cell_$and$SOC.v:33$2"/><g s:x="0" s:y="5" s:pid="A"/><g s:x="0" s:y="20" s:pid="B"/><g s:x="30" s:y="12.5" s:pid="Y"/></g><g s:type="and" transform="translate(670,125.5)" s:width="30" s:height="25" id="cell_$and$SOC.v:35$3"><s:alias val="$and"/><s:alias val="$logic_and"/><s:alias val="$_AND_"/><s:alias val="$reduce_and"/><path d="M0,0 L0,25 L15,25 A15 12.5 0 0 0 15,0 Z" class="cell_$and$SOC.v:35$3"/><g s:x="0" s:y="5" s:pid="A"/><g s:x="0" s:y="20" s:pid="B"/><g s:x="30" s:y="12.5" s:pid="Y"/></g><g s:type="not" transform="translate(736,559.5)" s:width="30" s:height="20" id="cell_$logic_not$SOC.v:50$4"><s:alias val="$_NOT_"/><s:alias val="$not"/><s:alias val="$logic_not"/><path d="M0,0 L0,20 L20,10 Z" class="cell_$logic_not$SOC.v:50$4"/><circle cx="24" cy="10" r="3" class="cell_$logic_not$SOC.v:50$4"/><g s:x="-1" s:y="10" s:pid="A"/><g s:x="27" s:y="10" s:pid="Y"/></g><g s:type="or" transform="translate(735.5,600.5)" s:width="30" s:height="25" id="cell_$reduce_or$SOC.v:26$1"><s:alias val="$or"/><s:alias val="$logic_or"/><s:alias val="$_OR_"/><s:alias val="$reduce_or"/><s:alias val="$reduce_bool"/><path d="M0,0 A30 25 0 0 1 0,25 A30 25 0 0 0 30,12.5 A30 25 0 0 0 0,0" class="cell_$reduce_or$SOC.v:26$1"/><g s:x="2" s:y="5" s:pid="A"/><g s:x="2" s:y="20" s:pid="B"/><g s:x="30" s:y="12.5" s:pid="Y"/></g><g s:type="generic" transform="translate(143,313)" s:width="30" s:height="40" id="cell_CPU"><text x="15" y="-4" class="nodelabel cell_CPU" s:attribute="ref">FemtoRV32</text><rect width="30" height="100" s:generic="body" class="cell_CPU"/><g transform="translate(0,10)" s:x="0" s:y="10" s:pid="in0" id="port_CPU~clk"><text x="-3" y="-4" class="inputPortLabel cell_CPU">clk</text></g><g transform="translate(0,30)" s:x="0" s:y="10" s:pid="in0" id="port_CPU~mem_rbusy"><text x="-3" y="-4" class="inputPortLabel cell_CPU">mem_rbusy</text></g><g transform="translate(0,50)" s:x="0" s:y="10" s:pid="in0" id="port_CPU~mem_rdata"><text x="-3" y="-4" class="inputPortLabel cell_CPU">mem_rdata</text></g><g transform="translate(0,70)" s:x="0" s:y="10" s:pid="in0" id="port_CPU~mem_wbusy"><text x="-3" y="-4" class="inputPortLabel cell_CPU">mem_wbusy</text></g><g transform="translate(0,90)" s:x="0" s:y="10" s:pid="in0" id="port_CPU~reset"><text x="-3" y="-4" class="inputPortLabel cell_CPU">reset</text></g><g transform="translate(30,10)" s:x="30" s:y="10" s:pid="out0" id="port_CPU~mem_addr"><text x="5" y="-4" style="fill:#000; stroke:none" class="cell_CPU">mem_addr</text></g><g transform="translate(30,30)" s:x="30" s:y="10" s:pid="out0" id="port_CPU~mem_rstrb"><text x="5" y="-4" style="fill:#000; stroke:none" class="cell_CPU">mem_rstrb</text></g><g transform="translate(30,50)" s:x="30" s:y="10" s:pid="out0" id="port_CPU~mem_wdata"><text x="5" y="-4" style="fill:#000; stroke:none" class="cell_CPU">mem_wdata</text></g><g transform="translate(30,70)" s:x="30" s:y="10" s:pid="out0" id="port_CPU~mem_wmask"><text x="5" y="-4" style="fill:#000; stroke:none" class="cell_CPU">mem_wmask</text></g></g><g s:type="generic" transform="translate(931,37)" s:width="30" s:height="40" id="cell_RAM"><text x="15" y="-4" class="nodelabel cell_RAM" s:attribute="ref">Memory</text><rect width="30" height="100" s:generic="body" class="cell_RAM"/><g transform="translate(0,10)" s:x="0" s:y="10" s:pid="in0" id="port_RAM~clk"><text x="-3" y="-4" class="inputPortLabel cell_RAM">clk</text></g><g transform="translate(0,30)" s:x="0" s:y="10" s:pid="in0" id="port_RAM~mem_addr"><text x="-3" y="-4" class="inputPortLabel cell_RAM">mem_addr</text></g><g transform="translate(0,50)" s:x="0" s:y="10" s:pid="in0" id="port_RAM~mem_rstrb"><text x="-3" y="-4" class="inputPortLabel cell_RAM">mem_rstrb</text></g><g transform="translate(0,70)" s:x="0" s:y="10" s:pid="in0" id="port_RAM~mem_wdata"><text x="-3" y="-4" class="inputPortLabel cell_RAM">mem_wdata</text></g><g transform="translate(0,90)" s:x="0" s:y="10" s:pid="in0" id="port_RAM~mem_wmask"><text x="-3" y="-4" class="inputPortLabel cell_RAM">mem_wmask</text></g><g transform="translate(30,10)" s:x="30" s:y="10" s:pid="out0" id="port_RAM~mem_rdata"><text x="5" y="-4" style="fill:#000; stroke:none" class="cell_RAM">mem_rdata</text></g></g><g s:type="generic" transform="translate(367,208.5)" s:width="30" s:height="40" id="cell_address_decoder"><text x="15" y="-4" class="nodelabel cell_address_decoder" s:attribute="ref">address_decoder</text><rect width="30" height="20" s:generic="body" class="cell_address_decoder"/><g transform="translate(0,10)" s:x="0" s:y="10" s:pid="in0" id="port_address_decoder~mem_addr"><text x="-3" y="-4" class="inputPortLabel cell_address_decoder">mem_addr</text></g><g transform="translate(30,10)" s:x="30" s:y="10" s:pid="out0" id="port_address_decoder~cs"><text x="5" y="-4" style="fill:#000; stroke:none" class="cell_address_decoder">cs</text></g></g><g s:type="generic" transform="translate(1169,37)" s:width="30" s:height="40" id="cell_chip_select"><text x="15" y="-4" class="nodelabel cell_chip_select" s:attribute="ref">chip_select</text><rect width="30" height="160" s:generic="body" class="cell_chip_select"/><g transform="translate(0,10)" s:x="0" s:y="10" s:pid="in0" id="port_chip_select~RAM_rdata"><text x="-3" y="-4" class="inputPortLabel cell_chip_select">RAM_rdata</text></g><g transform="translate(0,30)" s:x="0" s:y="10" s:pid="in0" id="port_chip_select~bin2bcd_dout"><text x="-3" y="-4" class="inputPortLabel cell_chip_select">bin2bcd_dout</text></g><g transform="translate(0,50)" s:x="0" s:y="10" s:pid="in0" id="port_chip_select~cs"><text x="-3" y="-4" class="inputPortLabel cell_chip_select">cs</text></g><g transform="translate(0,70)" s:x="0" s:y="10" s:pid="in0" id="port_chip_select~div_dout"><text x="-3" y="-4" class="inputPortLabel cell_chip_select">div_dout</text></g><g transform="translate(0,90)" s:x="0" s:y="10" s:pid="in0" id="port_chip_select~dpram_dout"><text x="-3" y="-4" class="inputPortLabel cell_chip_select">dpram_dout</text></g><g transform="translate(0,110)" s:x="0" s:y="10" s:pid="in0" id="port_chip_select~gpio_dout"><text x="-3" y="-4" class="inputPortLabel cell_chip_select">gpio_dout</text></g><g transform="translate(0,130)" s:x="0" s:y="10" s:pid="in0" id="port_chip_select~mult_dout"><text x="-3" y="-4" class="inputPortLabel cell_chip_select">mult_dout</text></g><g transform="translate(0,150)" s:x="0" s:y="10" s:pid="in0" id="port_chip_select~uart_dout"><text x="-3" y="-4" class="inputPortLabel cell_chip_select">uart_dout</text></g><g transform="translate(30,10)" s:x="30" s:y="10" s:pid="out0" id="port_chip_select~mem_rdata"><text x="5" y="-4" style="fill:#000; stroke:none" class="cell_chip_select">mem_rdata</text></g></g><g s:type="generic" transform="translate(931.125,290.5)" s:width="30" s:height="40" id="cell_mult1"><text x="15" y="-4" class="nodelabel cell_mult1" s:attribute="ref">peripheral_mult</text><rect width="30" height="140" s:generic="body" class="cell_mult1"/><g transform="translate(0,10)" s:x="0" s:y="10" s:pid="in0" id="port_mult1~addr"><text x="-3" y="-4" class="inputPortLabel cell_mult1">addr</text></g><g transform="translate(0,30)" s:x="0" s:y="10" s:pid="in0" id="port_mult1~clk"><text x="-3" y="-4" class="inputPortLabel cell_mult1">clk</text></g><g transform="translate(0,50)" s:x="0" s:y="10" s:pid="in0" id="port_mult1~cs"><text x="-3" y="-4" class="inputPortLabel cell_mult1">cs</text></g><g transform="translate(0,70)" s:x="0" s:y="10" s:pid="in0" id="port_mult1~d_in"><text x="-3" y="-4" class="inputPortLabel cell_mult1">d_in</text></g><g transform="translate(0,90)" s:x="0" s:y="10" s:pid="in0" id="port_mult1~rd"><text x="-3" y="-4" class="inputPortLabel cell_mult1">rd</text></g><g transform="translate(0,110)" s:x="0" s:y="10" s:pid="in0" id="port_mult1~reset"><text x="-3" y="-4" class="inputPortLabel cell_mult1">reset</text></g><g transform="translate(0,130)" s:x="0" s:y="10" s:pid="in0" id="port_mult1~wr"><text x="-3" y="-4" class="inputPortLabel cell_mult1">wr</text></g><g transform="translate(30,10)" s:x="30" s:y="10" s:pid="out0" id="port_mult1~d_out"><text x="5" y="-4" style="fill:#000; stroke:none" class="cell_mult1">d_out</text></g></g><g s:type="generic" transform="translate(931.2727272727273,508)" s:width="30" s:height="40" id="cell_per_uart"><text x="15" y="-4" class="nodelabel cell_per_uart" s:attribute="ref">peripheral_uart</text><rect width="30" height="160" s:generic="body" class="cell_per_uart"/><g transform="translate(0,10)" s:x="0" s:y="10" s:pid="in0" id="port_per_uart~addr"><text x="-3" y="-4" class="inputPortLabel cell_per_uart">addr</text></g><g transform="translate(0,30)" s:x="0" s:y="10" s:pid="in0" id="port_per_uart~clk"><text x="-3" y="-4" class="inputPortLabel cell_per_uart">clk</text></g><g transform="translate(0,50)" s:x="0" s:y="10" s:pid="in0" id="port_per_uart~cs"><text x="-3" y="-4" class="inputPortLabel cell_per_uart">cs</text></g><g transform="translate(0,70)" s:x="0" s:y="10" s:pid="in0" id="port_per_uart~d_in"><text x="-3" y="-4" class="inputPortLabel cell_per_uart">d_in</text></g><g transform="translate(0,90)" s:x="0" s:y="10" s:pid="in0" id="port_per_uart~rd"><text x="-3" y="-4" class="inputPortLabel cell_per_uart">rd</text></g><g transform="translate(0,110)" s:x="0" s:y="10" s:pid="in0" id="port_per_uart~rst"><text x="-3" y="-4" class="inputPortLabel cell_per_uart">rst</text></g><g transform="translate(0,130)" s:x="0" s:y="10" s:pid="in0" id="port_per_uart~uart_rx"><text x="-3" y="-4" class="inputPortLabel cell_per_uart">uart_rx</text></g><g transform="translate(0,150)" s:x="0" s:y="10" s:pid="in0" id="port_per_uart~wr"><text x="-3" y="-4" class="inputPortLabel cell_per_uart">wr</text></g><g transform="translate(30,10)" s:x="30" s:y="10" s:pid="out0" id="port_per_uart~d_out"><text x="5" y="-4" style="fill:#000; stroke:none" class="cell_per_uart">d_out</text></g><g transform="translate(30,30)" s:x="30" s:y="10" s:pid="out0" id="port_per_uart~ledout"><text x="5" y="-4" style="fill:#000; stroke:none" class="cell_per_uart">ledout</text></g><g transform="translate(30,50)" s:x="30" s:y="10" s:pid="out0" id="port_per_uart~uart_tx"><text x="5" y="-4" style="fill:#000; stroke:none" class="cell_per_uart">uart_tx</text></g></g><g s:type="inputExt" transform="translate(12,438.5)" s:width="30" s:height="20" id="cell_clk"><text x="15" y="-4" class="nodelabel cell_clk" s:attribute="ref">clk</text><s:alias val="$_inputExt_"/><path d="M0,0 L0,20 L15,20 L30,10 L15,0 Z" class="cell_clk"/><g s:x="30" s:y="10" s:pid="Y"/></g><g s:type="inputExt" transform="translate(12,559.5)" s:width="30" s:height="20" id="cell_resetn"><text x="15" y="-4" class="nodelabel cell_resetn" s:attribute="ref">resetn</text><s:alias val="$_inputExt_"/><path d="M0,0 L0,20 L15,20 L30,10 L15,0 Z" class="cell_resetn"/><g s:x="30" s:y="10" s:pid="Y"/></g><g s:type="outputExt" transform="translate(1169,528.5)" s:width="30" s:height="20" id="cell_LEDS"><text x="15" y="-4" class="nodelabel cell_LEDS" s:attribute="ref">LEDS</text><s:alias val="$_outputExt_"/><path d="M30,0 L30,20 L15,20 L0,10 L15,0 Z" class="cell_LEDS"/><g s:x="0" s:y="10" s:pid="A"/></g><g s:type="inputExt" transform="translate(736,673.5)" s:width="30" s:height="20" id="cell_RXD"><text x="15" y="-4" class="nodelabel cell_RXD" s:attribute="ref">RXD</text><s:alias val="$_inputExt_"/><path d="M0,0 L0,20 L15,20 L30,10 L15,0 Z" class="cell_RXD"/><g s:x="30" s:y="10" s:pid="Y"/></g><g s:type="outputExt" transform="translate(1169,593.5)" s:width="30" s:height="20" id="cell_TXD"><text x="15" y="-4" class="nodelabel cell_TXD" s:attribute="ref">TXD</text><s:alias val="$_outputExt_"/><path d="M30,0 L30,20 L15,20 L0,10 L15,0 Z" class="cell_TXD"/><g s:x="0" s:y="10" s:pid="A"/></g><g s:type="constant" transform="translate(12,373.5)" s:width="30" s:height="20" id="cell_0"><text x="15" y="-4" class="nodelabel cell_0" s:attribute="ref">0</text><s:alias val="$_constant_"/><rect width="30" height="20" class="cell_0"/><g s:x="31" s:y="10" s:pid="Y"/></g><g s:type="join" transform="translate(590,158.5)" s:width="4" s:height="40" id="cell_$join$,7,7,7,7,"><rect width="5" height="80" class="splitjoinBody" s:generic="body"/><s:alias val="$_join_"/><g s:x="5" s:y="20" s:pid="out"/><g transform="translate(0,10)" s:x="0" s:y="10" s:pid="in0"><text x="-3" y="-4" class="inputPortLabel">0</text></g><g transform="translate(0,30)" s:x="0" s:y="10" s:pid="in0"><text x="-3" y="-4" class="inputPortLabel">1</text></g><g transform="translate(0,50)" s:x="0" s:y="10" s:pid="in0"><text x="-3" y="-4" class="inputPortLabel">2</text></g><g transform="translate(0,70)" s:x="0" s:y="10" s:pid="in0"><text x="-3" y="-4" class="inputPortLabel">3</text></g></g><g s:type="split" transform="translate(531,198.5)" s:width="5" s:height="40" id="cell_$split$,7,148,149,150,151,152,153,"><rect width="5" height="60" class="splitjoinBody" s:generic="body"/><s:alias val="$_split_"/><g s:x="0" s:y="20" s:pid="in"/><g transform="translate(4,10)" s:x="4" s:y="10" s:pid="out0"><text x="5" y="-4">0</text></g><g transform="translate(4,30)" s:x="4" s:y="10" s:pid="out0"><text x="5" y="-4">3</text></g><g transform="translate(4,50)" s:x="4" s:y="10" s:pid="out0"><text x="5" y="-4">5</text></g></g><g s:type="split" transform="translate(670,290.5)" s:width="5" s:height="40" id="cell_$split$,20,21,22,23,24,25,26,27,28,29,30,31,32,33,34,35,36,37,38,39,40,41,42,43,44,45,46,47,48,49,50,51,"><rect width="5" height="20" class="splitjoinBody" s:generic="body"/><s:alias val="$_split_"/><g s:x="0" s:y="20" s:pid="in"/><g transform="translate(4,10)" s:x="4" s:y="10" s:pid="out0"><text x="5" y="-4">0:4</text></g></g><g s:type="split" transform="translate(670,470.5)" s:width="5" s:height="40" id="cell_$split$,84,85,86,87,88,89,90,91,92,93,94,95,96,97,98,99,100,101,102,103,104,105,106,107,108,109,110,111,112,113,114,115,"><rect width="5" height="20" class="splitjoinBody" s:generic="body"/><s:alias val="$_split_"/><g s:x="0" s:y="20" s:pid="in"/><g transform="translate(4,10)" s:x="4" s:y="10" s:pid="out0"><text x="5" y="-4">0:15</text></g></g><line x1="536" x2="573" y1="209" y2="209" class="net_7 width_1" style="stroke-width: 1"/><line x1="573" x2="573" y1="209" y2="83.5" class="net_7 width_1" style="stroke-width: 1"/><circle cx="573" cy="209" r="2" style="fill:#000" class="net_7 width_1"/><line x1="573" x2="735.6666666666666" y1="83.5" y2="83.5" class="net_7 width_1" style="stroke-width: 1"/><line x1="536" x2="573" y1="209" y2="209" class="net_7 width_1" style="stroke-width: 1"/><line x1="573" x2="573" y1="209" y2="169" class="net_7 width_1" style="stroke-width: 1"/><circle cx="573" cy="169" r="2" style="fill:#000" class="net_7 width_1"/><line x1="573" x2="590" y1="169" y2="169" class="net_7 width_1" style="stroke-width: 1"/><line x1="536" x2="573" y1="209" y2="209" class="net_7 width_1" style="stroke-width: 1"/><line x1="573" x2="573" y1="209" y2="189" class="net_7 width_1" style="stroke-width: 1"/><circle cx="573" cy="189" r="2" style="fill:#000" class="net_7 width_1"/><line x1="573" x2="590" y1="189" y2="189" class="net_7 width_1" style="stroke-width: 1"/><line x1="536" x2="590" y1="209" y2="209" class="net_7 width_1" style="stroke-width: 1"/><line x1="536" x2="573" y1="209" y2="209" class="net_7 width_1" style="stroke-width: 1"/><line x1="573" x2="573" y1="209" y2="248.5" class="net_7 width_1" style="stroke-width: 1"/><line x1="573" x2="590.5" y1="248.5" y2="248.5" class="net_7 width_1" style="stroke-width: 1"/><line x1="590.5" x2="590.5" y1="248.5" y2="229.5" class="net_7 width_1" style="stroke-width: 1"/><line x1="174" x2="239" y1="343.5" y2="343.5" class="net_8 width_1" style="stroke-width: 1"/><line x1="239" x2="239" y1="343.5" y2="98.5" class="net_8 width_1" style="stroke-width: 1"/><circle cx="239" cy="343.5" r="2" style="fill:#000" class="net_8 width_1"/><line x1="239" x2="735.6666666666666" y1="98.5" y2="98.5" class="net_8 width_1" style="stroke-width: 1"/><line x1="174" x2="239" y1="343.5" y2="343.5" class="net_8 width_1" style="stroke-width: 1"/><line x1="239" x2="239" y1="343.5" y2="503.5" class="net_8 width_1" style="stroke-width: 1"/><line x1="239" x2="806" y1="503.5" y2="503.5" class="net_8 width_1" style="stroke-width: 1"/><line x1="806" x2="806" y1="503.5" y2="381" class="net_8 width_1" style="stroke-width: 1"/><circle cx="239" cy="503.5" r="2" style="fill:#000" class="net_8 width_1"/><line x1="806" x2="931.125" y1="381" y2="381" class="net_8 width_1" style="stroke-width: 1"/><line x1="174" x2="239" y1="343.5" y2="343.5" class="net_8 width_1" style="stroke-width: 1"/><line x1="239" x2="239" y1="343.5" y2="652.5" class="net_8 width_1" style="stroke-width: 1"/><line x1="239" x2="856" y1="652.5" y2="652.5" class="net_8 width_1" style="stroke-width: 1"/><line x1="856" x2="856" y1="652.5" y2="598.5" class="net_8 width_1" style="stroke-width: 1"/><line x1="856" x2="931.2727272727273" y1="598.5" y2="598.5" class="net_8 width_1" style="stroke-width: 1"/><line x1="596" x2="606" y1="179" y2="179" class="net_7,7,7,7 width_4" style="stroke-width: 2"/><line x1="606" x2="606" y1="179" y2="130.5" class="net_7,7,7,7 width_4" style="stroke-width: 2"/><line x1="606" x2="670" y1="130.5" y2="130.5" class="net_7,7,7,7 width_4" style="stroke-width: 2"/><line x1="174" x2="259" y1="383.5" y2="383.5" class="net_10,11,12,13 width_4" style="stroke-width: 2"/><line x1="259" x2="259" y1="383.5" y2="147.5" class="net_10,11,12,13 width_4" style="stroke-width: 2"/><line x1="259" x2="645" y1="147.5" y2="147.5" class="net_10,11,12,13 width_4" style="stroke-width: 2"/><line x1="645" x2="645" y1="147.5" y2="145.5" class="net_10,11,12,13 width_4" style="stroke-width: 2"/><circle cx="259" cy="383.5" r="3" style="fill:#000" class="net_10,11,12,13 width_4"/><line x1="645" x2="670" y1="145.5" y2="145.5" class="net_10,11,12,13 width_4" style="stroke-width: 2"/><line x1="174" x2="259" y1="383.5" y2="383.5" class="net_10,11,12,13 width_4" style="stroke-width: 2"/><line x1="259" x2="259" y1="383.5" y2="605.5" class="net_10,11,12,13 width_4" style="stroke-width: 2"/><line x1="259" x2="737.5" y1="605.5" y2="605.5" class="net_10,11,12,13 width_4" style="stroke-width: 2"/><line x1="42" x2="735" y1="569.5" y2="569.5" class="net_3 width_1" style="stroke-width: 1"/><line x1="42" x2="78" y1="569.5" y2="569.5" class="net_3 width_1" style="stroke-width: 1"/><line x1="78" x2="78" y1="569.5" y2="403.5" class="net_3 width_1" style="stroke-width: 1"/><circle cx="78" cy="569.5" r="2" style="fill:#000" class="net_3 width_1"/><line x1="78" x2="143" y1="403.5" y2="403.5" class="net_3 width_1" style="stroke-width: 1"/><line x1="42" x2="68" y1="448.5" y2="448.5" class="net_2 width_1" style="stroke-width: 1"/><line x1="68" x2="68" y1="448.5" y2="323.5" class="net_2 width_1" style="stroke-width: 1"/><circle cx="68" cy="448.5" r="2" style="fill:#000" class="net_2 width_1"/><circle cx="68" cy="323.5" r="2" style="fill:#000" class="net_2 width_1"/><line x1="68" x2="143" y1="323.5" y2="323.5" class="net_2 width_1" style="stroke-width: 1"/><line x1="42" x2="68" y1="448.5" y2="448.5" class="net_2 width_1" style="stroke-width: 1"/><line x1="68" x2="68" y1="448.5" y2="47.5" class="net_2 width_1" style="stroke-width: 1"/><line x1="68" x2="931" y1="47.5" y2="47.5" class="net_2 width_1" style="stroke-width: 1"/><line x1="42" x2="776" y1="448.5" y2="448.5" class="net_2 width_1" style="stroke-width: 1"/><line x1="776" x2="776" y1="448.5" y2="321" class="net_2 width_1" style="stroke-width: 1"/><line x1="776" x2="931.125" y1="321" y2="321" class="net_2 width_1" style="stroke-width: 1"/><line x1="42" x2="269" y1="448.5" y2="448.5" class="net_2 width_1" style="stroke-width: 1"/><line x1="269" x2="269" y1="448.5" y2="538.5" class="net_2 width_1" style="stroke-width: 1"/><circle cx="269" cy="448.5" r="2" style="fill:#000" class="net_2 width_1"/><line x1="269" x2="931.2727272727273" y1="538.5" y2="538.5" class="net_2 width_1" style="stroke-width: 1"/><line x1="43" x2="78" y1="383.5" y2="383.5" class="net_346 width_1" style="stroke-width: 1"/><line x1="78" x2="78" y1="383.5" y2="343.5" class="net_346 width_1" style="stroke-width: 1"/><circle cx="78" cy="383.5" r="2" style="fill:#000" class="net_346 width_1"/><line x1="78" x2="143" y1="343.5" y2="343.5" class="net_346 width_1" style="stroke-width: 1"/><line x1="43" x2="143" y1="383.5" y2="383.5" class="net_346 width_1" style="stroke-width: 1"/><line x1="1200" x2="1265" y1="47.5" y2="47.5" class="net_52,53,54,55,56,57,58,59,60,61,62,63,64,65,66,67,68,69,70,71,72,73,74,75,76,77,78,79,80,81,82,83 width_32" style="stroke-width: 2"/><line x1="1265" x2="1265" y1="47.5" y2="16" class="net_52,53,54,55,56,57,58,59,60,61,62,63,64,65,66,67,68,69,70,71,72,73,74,75,76,77,78,79,80,81,82,83 width_32" style="stroke-width: 2"/><line x1="1265" x2="58" y1="16" y2="16" class="net_52,53,54,55,56,57,58,59,60,61,62,63,64,65,66,67,68,69,70,71,72,73,74,75,76,77,78,79,80,81,82,83 width_32" style="stroke-width: 2"/><line x1="58" x2="58" y1="16" y2="363.5" class="net_52,53,54,55,56,57,58,59,60,61,62,63,64,65,66,67,68,69,70,71,72,73,74,75,76,77,78,79,80,81,82,83 width_32" style="stroke-width: 2"/><line x1="58" x2="143" y1="363.5" y2="363.5" class="net_52,53,54,55,56,57,58,59,60,61,62,63,64,65,66,67,68,69,70,71,72,73,74,75,76,77,78,79,80,81,82,83 width_32" style="stroke-width: 2"/><line x1="174" x2="269" y1="323.5" y2="323.5" class="net_20,21,22,23,24,25,26,27,28,29,30,31,32,33,34,35,36,37,38,39,40,41,42,43,44,45,46,47,48,49,50,51 width_32" style="stroke-width: 2"/><line x1="269" x2="269" y1="323.5" y2="67.5" class="net_20,21,22,23,24,25,26,27,28,29,30,31,32,33,34,35,36,37,38,39,40,41,42,43,44,45,46,47,48,49,50,51 width_32" style="stroke-width: 2"/><circle cx="269" cy="323.5" r="3" style="fill:#000" class="net_20,21,22,23,24,25,26,27,28,29,30,31,32,33,34,35,36,37,38,39,40,41,42,43,44,45,46,47,48,49,50,51 width_32"/><line x1="269" x2="931" y1="67.5" y2="67.5" class="net_20,21,22,23,24,25,26,27,28,29,30,31,32,33,34,35,36,37,38,39,40,41,42,43,44,45,46,47,48,49,50,51 width_32" style="stroke-width: 2"/><line x1="174" x2="269" y1="323.5" y2="323.5" class="net_20,21,22,23,24,25,26,27,28,29,30,31,32,33,34,35,36,37,38,39,40,41,42,43,44,45,46,47,48,49,50,51 width_32" style="stroke-width: 2"/><line x1="269" x2="269" y1="323.5" y2="219" class="net_20,21,22,23,24,25,26,27,28,29,30,31,32,33,34,35,36,37,38,39,40,41,42,43,44,45,46,47,48,49,50,51 width_32" style="stroke-width: 2"/><circle cx="269" cy="219" r="3" style="fill:#000" class="net_20,21,22,23,24,25,26,27,28,29,30,31,32,33,34,35,36,37,38,39,40,41,42,43,44,45,46,47,48,49,50,51 width_32"/><line x1="269" x2="367" y1="219" y2="219" class="net_20,21,22,23,24,25,26,27,28,29,30,31,32,33,34,35,36,37,38,39,40,41,42,43,44,45,46,47,48,49,50,51 width_32" style="stroke-width: 2"/><line x1="174" x2="670.5" y1="323.5" y2="323.5" class="net_20,21,22,23,24,25,26,27,28,29,30,31,32,33,34,35,36,37,38,39,40,41,42,43,44,45,46,47,48,49,50,51 width_32" style="stroke-width: 2"/><line x1="670.5" x2="670.5" y1="323.5" y2="311.5" class="net_20,21,22,23,24,25,26,27,28,29,30,31,32,33,34,35,36,37,38,39,40,41,42,43,44,45,46,47,48,49,50,51 width_32" style="stroke-width: 2"/><line x1="765.6666666666666" x2="776" y1="91" y2="91" class="net_9 width_1" style="stroke-width: 1"/><line x1="776" x2="776" y1="91" y2="87.5" class="net_9 width_1" style="stroke-width: 1"/><line x1="776" x2="931" y1="87.5" y2="87.5" class="net_9 width_1" style="stroke-width: 1"/><line x1="174" x2="249" y1="363.5" y2="363.5" class="net_84,85,86,87,88,89,90,91,92,93,94,95,96,97,98,99,100,101,102,103,104,105,106,107,108,109,110,111,112,113,114,115 width_32" style="stroke-width: 2"/><line x1="249" x2="249" y1="363.5" y2="114.5" class="net_84,85,86,87,88,89,90,91,92,93,94,95,96,97,98,99,100,101,102,103,104,105,106,107,108,109,110,111,112,113,114,115 width_32" style="stroke-width: 2"/><line x1="249" x2="776" y1="114.5" y2="114.5" class="net_84,85,86,87,88,89,90,91,92,93,94,95,96,97,98,99,100,101,102,103,104,105,106,107,108,109,110,111,112,113,114,115 width_32" style="stroke-width: 2"/><line x1="776" x2="776" y1="114.5" y2="107.5" class="net_84,85,86,87,88,89,90,91,92,93,94,95,96,97,98,99,100,101,102,103,104,105,106,107,108,109,110,111,112,113,114,115 width_32" style="stroke-width: 2"/><circle cx="249" cy="363.5" r="3" style="fill:#000" class="net_84,85,86,87,88,89,90,91,92,93,94,95,96,97,98,99,100,101,102,103,104,105,106,107,108,109,110,111,112,113,114,115 width_32"/><line x1="776" x2="931" y1="107.5" y2="107.5" class="net_84,85,86,87,88,89,90,91,92,93,94,95,96,97,98,99,100,101,102,103,104,105,106,107,108,109,110,111,112,113,114,115 width_32" style="stroke-width: 2"/><line x1="174" x2="249" y1="363.5" y2="363.5" class="net_84,85,86,87,88,89,90,91,92,93,94,95,96,97,98,99,100,101,102,103,104,105,106,107,108,109,110,111,112,113,114,115 width_32" style="stroke-width: 2"/><line x1="249" x2="249" y1="363.5" y2="636.5" class="net_84,85,86,87,88,89,90,91,92,93,94,95,96,97,98,99,100,101,102,103,104,105,106,107,108,109,110,111,112,113,114,115 width_32" style="stroke-width: 2"/><line x1="249" x2="846" y1="636.5" y2="636.5" class="net_84,85,86,87,88,89,90,91,92,93,94,95,96,97,98,99,100,101,102,103,104,105,106,107,108,109,110,111,112,113,114,115 width_32" style="stroke-width: 2"/><line x1="846" x2="846" y1="636.5" y2="578.5" class="net_84,85,86,87,88,89,90,91,92,93,94,95,96,97,98,99,100,101,102,103,104,105,106,107,108,109,110,111,112,113,114,115 width_32" style="stroke-width: 2"/><line x1="846" x2="931.2727272727273" y1="578.5" y2="578.5" class="net_84,85,86,87,88,89,90,91,92,93,94,95,96,97,98,99,100,101,102,103,104,105,106,107,108,109,110,111,112,113,114,115 width_32" style="stroke-width: 2"/><line x1="174" x2="249" y1="363.5" y2="363.5" class="net_84,85,86,87,88,89,90,91,92,93,94,95,96,97,98,99,100,101,102,103,104,105,106,107,108,109,110,111,112,113,114,115 width_32" style="stroke-width: 2"/><line x1="249" x2="249" y1="363.5" y2="553.5" class="net_84,85,86,87,88,89,90,91,92,93,94,95,96,97,98,99,100,101,102,103,104,105,106,107,108,109,110,111,112,113,114,115 width_32" style="stroke-width: 2"/><line x1="249" x2="670.5" y1="553.5" y2="553.5" class="net_84,85,86,87,88,89,90,91,92,93,94,95,96,97,98,99,100,101,102,103,104,105,106,107,108,109,110,111,112,113,114,115 width_32" style="stroke-width: 2"/><circle cx="249" cy="553.5" r="3" style="fill:#000" class="net_84,85,86,87,88,89,90,91,92,93,94,95,96,97,98,99,100,101,102,103,104,105,106,107,108,109,110,111,112,113,114,115 width_32"/><line x1="670.5" x2="670.5" y1="553.5" y2="491.5" class="net_84,85,86,87,88,89,90,91,92,93,94,95,96,97,98,99,100,101,102,103,104,105,106,107,108,109,110,111,112,113,114,115 width_32" style="stroke-width: 2"/><line x1="700" x2="776" y1="138" y2="138" class="net_14,15,16,17 width_4" style="stroke-width: 2"/><line x1="776" x2="776" y1="138" y2="127.5" class="net_14,15,16,17 width_4" style="stroke-width: 2"/><line x1="776" x2="931" y1="127.5" y2="127.5" class="net_14,15,16,17 width_4" style="stroke-width: 2"/><line x1="962" x2="1169" y1="47.5" y2="47.5" class="net_116,117,118,119,120,121,122,123,124,125,126,127,128,129,130,131,132,133,134,135,136,137,138,139,140,141,142,143,144,145,146,147 width_32" style="stroke-width: 2"/><line x1="398" x2="467" y1="219" y2="219" class="net_7,148,149,150,151,152,153 width_7" style="stroke-width: 2"/><line x1="467" x2="467" y1="219" y2="269.5" class="net_7,148,149,150,151,152,153 width_7" style="stroke-width: 2"/><line x1="467" x2="1066" y1="269.5" y2="269.5" class="net_7,148,149,150,151,152,153 width_7" style="stroke-width: 2"/><line x1="1066" x2="1066" y1="269.5" y2="87.5" class="net_7,148,149,150,151,152,153 width_7" style="stroke-width: 2"/><circle cx="467" cy="219" r="3" style="fill:#000" class="net_7,148,149,150,151,152,153 width_7"/><line x1="1066" x2="1169" y1="87.5" y2="87.5" class="net_7,148,149,150,151,152,153 width_7" style="stroke-width: 2"/><line x1="398" x2="531" y1="219" y2="219" class="net_7,148,149,150,151,152,153 width_7" style="stroke-width: 2"/><line x1="962.125" x2="1076" y1="301" y2="301" class="net_282,283,284,285,286,287,288,289,290,291,292,293,294,295,296,297,298,299,300,301,302,303,304,305,306,307,308,309,310,311,312,313 width_32" style="stroke-width: 2"/><line x1="1076" x2="1076" y1="301" y2="167.5" class="net_282,283,284,285,286,287,288,289,290,291,292,293,294,295,296,297,298,299,300,301,302,303,304,305,306,307,308,309,310,311,312,313 width_32" style="stroke-width: 2"/><line x1="1076" x2="1169" y1="167.5" y2="167.5" class="net_282,283,284,285,286,287,288,289,290,291,292,293,294,295,296,297,298,299,300,301,302,303,304,305,306,307,308,309,310,311,312,313 width_32" style="stroke-width: 2"/><line x1="962.2727272727273" x2="1027" y1="518.5" y2="518.5" class="net_314,315,316,317,318,319,320,321,322,323,324,325,326,327,328,329,330,331,332,333,334,335,336,337,338,339,340,341,342,343,344,345 width_32" style="stroke-width: 2"/><line x1="1027" x2="1027" y1="518.5" y2="321" class="net_314,315,316,317,318,319,320,321,322,323,324,325,326,327,328,329,330,331,332,333,334,335,336,337,338,339,340,341,342,343,344,345 width_32" style="stroke-width: 2"/><line x1="1027" x2="1086" y1="321" y2="321" class="net_314,315,316,317,318,319,320,321,322,323,324,325,326,327,328,329,330,331,332,333,334,335,336,337,338,339,340,341,342,343,344,345 width_32" style="stroke-width: 2"/><line x1="1086" x2="1086" y1="321" y2="187.5" class="net_314,315,316,317,318,319,320,321,322,323,324,325,326,327,328,329,330,331,332,333,334,335,336,337,338,339,340,341,342,343,344,345 width_32" style="stroke-width: 2"/><line x1="1086" x2="1169" y1="187.5" y2="187.5" class="net_314,315,316,317,318,319,320,321,322,323,324,325,326,327,328,329,330,331,332,333,334,335,336,337,338,339,340,341,342,343,344,345 width_32" style="stroke-width: 2"/><line x1="675" x2="931.125" y1="301" y2="301" class="net_20,21,22,23,24 width_5" style="stroke-width: 2"/><line x1="675" x2="710" y1="301" y2="301" class="net_20,21,22,23,24 width_5" style="stroke-width: 2"/><line x1="710" x2="710" y1="301" y2="518.5" class="net_20,21,22,23,24 width_5" style="stroke-width: 2"/><circle cx="710" cy="301" r="3" style="fill:#000" class="net_20,21,22,23,24 width_5"/><line x1="710" x2="931.2727272727273" y1="518.5" y2="518.5" class="net_20,21,22,23,24 width_5" style="stroke-width: 2"/><line x1="536" x2="563" y1="229" y2="229" class="net_150 width_1" style="stroke-width: 1"/><line x1="563" x2="563" y1="229" y2="459.5" class="net_150 width_1" style="stroke-width: 1"/><line x1="563" x2="786" y1="459.5" y2="459.5" class="net_150 width_1" style="stroke-width: 1"/><line x1="786" x2="786" y1="459.5" y2="341" class="net_150 width_1" style="stroke-width: 1"/><line x1="786" x2="931.125" y1="341" y2="341" class="net_150 width_1" style="stroke-width: 1"/><line x1="675" x2="796" y1="481" y2="481" class="net_84,85,86,87,88,89,90,91,92,93,94,95,96,97,98,99 width_16" style="stroke-width: 2"/><line x1="796" x2="796" y1="481" y2="361" class="net_84,85,86,87,88,89,90,91,92,93,94,95,96,97,98,99 width_16" style="stroke-width: 2"/><line x1="796" x2="931.125" y1="361" y2="361" class="net_84,85,86,87,88,89,90,91,92,93,94,95,96,97,98,99 width_16" style="stroke-width: 2"/><line x1="763" x2="816" y1="569.5" y2="569.5" class="net_18 width_1" style="stroke-width: 1"/><line x1="816" x2="816" y1="569.5" y2="401" class="net_18 width_1" style="stroke-width: 1"/><circle cx="816" cy="569.5" r="2" style="fill:#000" class="net_18 width_1"/><line x1="816" x2="931.125" y1="401" y2="401" class="net_18 width_1" style="stroke-width: 1"/><line x1="763" x2="816" y1="569.5" y2="569.5" class="net_18 width_1" style="stroke-width: 1"/><line x1="816" x2="816" y1="569.5" y2="618.5" class="net_18 width_1" style="stroke-width: 1"/><line x1="816" x2="931.2727272727273" y1="618.5" y2="618.5" class="net_18 width_1" style="stroke-width: 1"/><line x1="765.5" x2="826" y1="613" y2="613" class="net_19 width_1" style="stroke-width: 1"/><line x1="826" x2="826" y1="613" y2="421" class="net_19 width_1" style="stroke-width: 1"/><circle cx="826" cy="613" r="2" style="fill:#000" class="net_19 width_1"/><line x1="826" x2="931.125" y1="421" y2="421" class="net_19 width_1" style="stroke-width: 1"/><line x1="765.5" x2="826" y1="613" y2="613" class="net_19 width_1" style="stroke-width: 1"/><line x1="826" x2="826" y1="613" y2="658.5" class="net_19 width_1" style="stroke-width: 1"/><line x1="826" x2="931.2727272727273" y1="658.5" y2="658.5" class="net_19 width_1" style="stroke-width: 1"/><line x1="536" x2="553" y1="249" y2="249" class="net_152 width_1" style="stroke-width: 1"/><line x1="553" x2="553" y1="249" y2="589.5" class="net_152 width_1" style="stroke-width: 1"/><line x1="553" x2="836" y1="589.5" y2="589.5" class="net_152 width_1" style="stroke-width: 1"/><line x1="836" x2="836" y1="589.5" y2="558.5" class="net_152 width_1" style="stroke-width: 1"/><line x1="836" x2="931.2727272727273" y1="558.5" y2="558.5" class="net_152 width_1" style="stroke-width: 1"/><line x1="766" x2="866" y1="683.5" y2="683.5" class="net_5 width_1" style="stroke-width: 1"/><line x1="866" x2="866" y1="683.5" y2="638.5" class="net_5 width_1" style="stroke-width: 1"/><line x1="866" x2="931.2727272727273" y1="638.5" y2="638.5" class="net_5 width_1" style="stroke-width: 1"/><line x1="962.2727272727273" x2="1169" y1="538.5" y2="538.5" class="net_4 width_1" style="stroke-width: 1"/><line x1="962.2727272727273" x2="1027" y1="558.5" y2="558.5" class="net_6 width_1" style="stroke-width: 1"/><line x1="1027" x2="1027" y1="558.5" y2="603.5" class="net_6 width_1" style="stroke-width: 1"/><line x1="1027" x2="1169" y1="603.5" y2="603.5" class="net_6 width_1" style="stroke-width: 1"/><rect x="632" y="125.5" width="16" height="9" class="net_7,7,7,7 width_4 busLabel_4" style="fill: white; stroke: none"/><text x="631" y="133.5" class="net_7,7,7,7 width_4 busLabel_4">/4/</text><rect x="536" y="600.5" width="16" height="9" class="net_10,11,12,13 width_4 busLabel_4" style="fill: white; stroke: none"/><text x="535" y="608.5" class="net_10,11,12,13 width_4 busLabel_4">/4/</text><rect x="536" y="600.5" width="16" height="9" class="net_10,11,12,13 width_4 busLabel_4" style="fill: white; stroke: none"/><text x="535" y="608.5" class="net_10,11,12,13 width_4 busLabel_4">/4/</text><rect x="588.5" y="11" width="22" height="9" class="net_52,53,54,55,56,57,58,59,60,61,62,63,64,65,66,67,68,69,70,71,72,73,74,75,76,77,78,79,80,81,82,83 width_32 busLabel_32" style="fill: white; stroke: none"/><text x="587.5" y="19" class="net_52,53,54,55,56,57,58,59,60,61,62,63,64,65,66,67,68,69,70,71,72,73,74,75,76,77,78,79,80,81,82,83 width_32 busLabel_32">/32/</text><rect x="493" y="318.5" width="22" height="9" class="net_20,21,22,23,24,25,26,27,28,29,30,31,32,33,34,35,36,37,38,39,40,41,42,43,44,45,46,47,48,49,50,51 width_32 busLabel_32" style="fill: white; stroke: none"/><text x="492" y="326.5" class="net_20,21,22,23,24,25,26,27,28,29,30,31,32,33,34,35,36,37,38,39,40,41,42,43,44,45,46,47,48,49,50,51 width_32 busLabel_32">/32/</text><rect x="493" y="318.5" width="22" height="9" class="net_20,21,22,23,24,25,26,27,28,29,30,31,32,33,34,35,36,37,38,39,40,41,42,43,44,45,46,47,48,49,50,51 width_32 busLabel_32" style="fill: white; stroke: none"/><text x="492" y="326.5" class="net_20,21,22,23,24,25,26,27,28,29,30,31,32,33,34,35,36,37,38,39,40,41,42,43,44,45,46,47,48,49,50,51 width_32 busLabel_32">/32/</text><rect x="493" y="318.5" width="22" height="9" class="net_20,21,22,23,24,25,26,27,28,29,30,31,32,33,34,35,36,37,38,39,40,41,42,43,44,45,46,47,48,49,50,51 width_32 busLabel_32" style="fill: white; stroke: none"/><text x="492" y="326.5" class="net_20,21,22,23,24,25,26,27,28,29,30,31,32,33,34,35,36,37,38,39,40,41,42,43,44,45,46,47,48,49,50,51 width_32 busLabel_32">/32/</text><rect x="493" y="548.5" width="22" height="9" class="net_84,85,86,87,88,89,90,91,92,93,94,95,96,97,98,99,100,101,102,103,104,105,106,107,108,109,110,111,112,113,114,115 width_32 busLabel_32" style="fill: white; stroke: none"/><text x="492" y="556.5" class="net_84,85,86,87,88,89,90,91,92,93,94,95,96,97,98,99,100,101,102,103,104,105,106,107,108,109,110,111,112,113,114,115 width_32 busLabel_32">/32/</text><rect x="493" y="548.5" width="22" height="9" class="net_84,85,86,87,88,89,90,91,92,93,94,95,96,97,98,99,100,101,102,103,104,105,106,107,108,109,110,111,112,113,114,115 width_32 busLabel_32" style="fill: white; stroke: none"/><text x="492" y="556.5" class="net_84,85,86,87,88,89,90,91,92,93,94,95,96,97,98,99,100,101,102,103,104,105,106,107,108,109,110,111,112,113,114,115 width_32 busLabel_32">/32/</text><rect x="493" y="548.5" width="22" height="9" class="net_84,85,86,87,88,89,90,91,92,93,94,95,96,97,98,99,100,101,102,103,104,105,106,107,108,109,110,111,112,113,114,115 width_32 busLabel_32" style="fill: white; stroke: none"/><text x="492" y="556.5" class="net_84,85,86,87,88,89,90,91,92,93,94,95,96,97,98,99,100,101,102,103,104,105,106,107,108,109,110,111,112,113,114,115 width_32 busLabel_32">/32/</text><rect x="749.5" y="133" width="16" height="9" class="net_14,15,16,17 width_4 busLabel_4" style="fill: white; stroke: none"/><text x="748.5" y="141" class="net_14,15,16,17 width_4 busLabel_4">/4/</text><rect x="1053" y="42.5" width="22" height="9" class="net_116,117,118,119,120,121,122,123,124,125,126,127,128,129,130,131,132,133,134,135,136,137,138,139,140,141,142,143,144,145,146,147 width_32 busLabel_32" style="fill: white; stroke: none"/><text x="1052" y="50.5" class="net_116,117,118,119,120,121,122,123,124,125,126,127,128,129,130,131,132,133,134,135,136,137,138,139,140,141,142,143,144,145,146,147 width_32 busLabel_32">/32/</text><rect x="493" y="214" width="16" height="9" class="net_7,148,149,150,151,152,153 width_7 busLabel_7" style="fill: white; stroke: none"/><text x="492" y="222" class="net_7,148,149,150,151,152,153 width_7 busLabel_7">/7/</text><rect x="493" y="214" width="16" height="9" class="net_7,148,149,150,151,152,153 width_7 busLabel_7" style="fill: white; stroke: none"/><text x="492" y="222" class="net_7,148,149,150,151,152,153 width_7 busLabel_7">/7/</text><rect x="1053" y="296" width="22" height="9" class="net_282,283,284,285,286,287,288,289,290,291,292,293,294,295,296,297,298,299,300,301,302,303,304,305,306,307,308,309,310,311,312,313 width_32 busLabel_32" style="fill: white; stroke: none"/><text x="1052" y="304" class="net_282,283,284,285,286,287,288,289,290,291,292,293,294,295,296,297,298,299,300,301,302,303,304,305,306,307,308,309,310,311,312,313 width_32 busLabel_32">/32/</text><rect x="1053" y="316" width="22" height="9" class="net_314,315,316,317,318,319,320,321,322,323,324,325,326,327,328,329,330,331,332,333,334,335,336,337,338,339,340,341,342,343,344,345 width_32 busLabel_32" style="fill: white; stroke: none"/><text x="1052" y="324" class="net_314,315,316,317,318,319,320,321,322,323,324,325,326,327,328,329,330,331,332,333,334,335,336,337,338,339,340,341,342,343,344,345 width_32 busLabel_32">/32/</text><rect x="749.5" y="513.5" width="16" height="9" class="net_20,21,22,23,24 width_5 busLabel_5" style="fill: white; stroke: none"/><text x="748.5" y="521.5" class="net_20,21,22,23,24 width_5 busLabel_5">/5/</text><rect x="749.5" y="513.5" width="16" height="9" class="net_20,21,22,23,24 width_5 busLabel_5" style="fill: white; stroke: none"/><text x="748.5" y="521.5" class="net_20,21,22,23,24 width_5 busLabel_5">/5/</text><rect x="749.5" y="476" width="22" height="9" class="net_84,85,86,87,88,89,90,91,92,93,94,95,96,97,98,99 width_16 busLabel_16" style="fill: white; stroke: none"/><text x="748.5" y="484" class="net_84,85,86,87,88,89,90,91,92,93,94,95,96,97,98,99 width_16 busLabel_16">/16/</text></svg>