<?xml version="1.0" encoding="us-ascii" standalone="no"?><svg xmlns="http://www.w3.org/2000/svg" xmlns:xlink="http://www.w3.org/1999/xlink" contentStyleType="text/css" height="398px" preserveAspectRatio="none" style="width:1433px;height:398px;background:#FFFFFF;" version="1.1" viewBox="0 0 1433 398" width="1433px" zoomAndPan="magnify"><rect width="100%" height="100%" fill="#ffffff" stroke="none"/><defs/><g><text fill="#000000" font-family="sans-serif" font-size="14" font-weight="bold" lengthAdjust="spacing" textLength="83" x="668" y="24.9659">FPGA-ESP32</text><!--cluster FPGA\nECP5--><g id="cluster_FPGA\nECP5"><rect fill="#00FF00" height="212" rx="2.5" ry="2.5" style="stroke:#181818;stroke-width:1.0;" width="221" x="377.5" y="85.7378"/><text fill="#000000" font-family="sans-serif" font-size="14" font-weight="bold" lengthAdjust="spacing" textLength="37" x="469.5" y="102.7038">FPGA</text><text fill="#000000" font-family="sans-serif" font-size="14" font-weight="bold" lengthAdjust="spacing" textLength="34" x="471" y="121.7717">ECP5</text></g><!--cluster BRIDGE\nFTDI_232RL--><g id="cluster_BRIDGE\nFTDI_232RL"><rect fill="#00FF00" height="212" rx="2.5" ry="2.5" style="stroke:#181818;stroke-width:1.0;" width="224.5" x="7" y="156.7378"/><text fill="#000000" font-family="sans-serif" font-size="14" font-weight="bold" lengthAdjust="spacing" textLength="51" x="93.75" y="173.7038">BRIDGE</text><text fill="#000000" font-family="sans-serif" font-size="14" font-weight="bold" lengthAdjust="spacing" textLength="78" x="80.25" y="192.7717">FTDI_232RL</text></g><!--cluster ESP32--><g id="cluster_ESP32"><rect fill="#DDDDDD" height="230" rx="2.5" ry="2.5" style="stroke:#181818;stroke-width:1.0;" width="217.5" x="879" y="85.7378"/><text fill="#000000" font-family="sans-serif" font-size="14" font-weight="bold" lengthAdjust="spacing" textLength="41" x="967.25" y="102.7038">ESP32</text></g><!--cluster PC--><g id="cluster_PC"><rect fill="#DDDDDD" height="142" rx="2.5" ry="2.5" style="stroke:#181818;stroke-width:1.0;" width="135.5" x="1291.5" y="200.7378"/><text fill="#000000" font-family="sans-serif" font-size="14" font-weight="bold" lengthAdjust="spacing" textLength="18" x="1350.25" y="217.7038">PC</text></g><text fill="#000000" font-family="sans-serif" font-size="14" lengthAdjust="spacing" textLength="64" x="546" y="318.7038">fpga_gnd</text><rect fill="#F1F1F1" height="12" style="stroke:#181818;stroke-width:1.5;" width="12" x="572" y="291.7378"/><text fill="#000000" font-family="sans-serif" font-size="14" lengthAdjust="spacing" textLength="83" x="539" y="169.6358">fpga_pin_D4</text><rect fill="#F1F1F1" height="12" style="stroke:#181818;stroke-width:1.5;" width="12" x="574.5" y="185.7378"/><text fill="#000000" font-family="sans-serif" font-size="14" lengthAdjust="spacing" textLength="82" x="539" y="63.6358">fpga_pin_C4</text><rect fill="#F1F1F1" height="12" style="stroke:#181818;stroke-width:1.5;" width="12" x="574" y="79.7378"/><text fill="#000000" font-family="sans-serif" font-size="14" lengthAdjust="spacing" textLength="63" x="346" y="267.7038">fpga_jtag</text><rect fill="#F1F1F1" height="12" style="stroke:#181818;stroke-width:1.5;" width="12" x="371.5" y="240.7378"/><text fill="#000000" font-family="sans-serif" font-size="14" lengthAdjust="spacing" textLength="78" x="167" y="389.7038">bridge_USB</text><rect fill="#F1F1F1" height="12" style="stroke:#181818;stroke-width:1.5;" width="12" x="200" y="362.7378"/><text fill="#000000" font-family="sans-serif" font-size="14" lengthAdjust="spacing" textLength="136" x="145.5" y="240.6358">bridge_jtag_bitbang</text><rect fill="#F1F1F1" height="12" style="stroke:#181818;stroke-width:1.5;" width="12" x="207.5" y="256.7378"/><text fill="#000000" font-family="sans-serif" font-size="14" lengthAdjust="spacing" textLength="78" x="167" y="134.6358">bridge_gnd</text><rect fill="#F1F1F1" height="12" style="stroke:#181818;stroke-width:1.5;" width="12" x="200" y="150.7378"/><text fill="#000000" font-family="sans-serif" font-size="14" lengthAdjust="spacing" textLength="73" x="842.5" y="318.7038">esp32_gnd</text><rect fill="#F1F1F1" height="12" style="stroke:#181818;stroke-width:1.5;" width="12" x="873" y="291.7378"/><text fill="#000000" font-family="sans-serif" font-size="14" lengthAdjust="spacing" textLength="108" x="829.5" y="169.6358">esp32_tx_pin_17</text><rect fill="#F1F1F1" height="12" style="stroke:#181818;stroke-width:1.5;" width="12" x="877.5" y="185.7378"/><text fill="#000000" font-family="sans-serif" font-size="14" lengthAdjust="spacing" textLength="109" x="829" y="63.6358">esp32_rx_pin_16</text><rect fill="#F1F1F1" height="12" style="stroke:#181818;stroke-width:1.5;" width="12" x="877.5" y="79.7378"/><text fill="#000000" font-family="sans-serif" font-size="14" lengthAdjust="spacing" textLength="73" x="1060" y="168.6358">esp32_USB</text><rect fill="#F1F1F1" height="12" style="stroke:#181818;stroke-width:1.5;" width="12" x="1090.5" y="184.7378"/><text fill="#000000" font-family="sans-serif" font-size="14" lengthAdjust="spacing" textLength="74" x="1254.5" y="345.7038">pc_ttyUSB0</text><rect fill="#F1F1F1" height="12" style="stroke:#181818;stroke-width:1.5;" width="12" x="1285.5" y="318.7378"/><text fill="#000000" font-family="sans-serif" font-size="14" lengthAdjust="spacing" textLength="74" x="1254.5" y="196.6358">pc_ttyUSB1</text><rect fill="#F1F1F1" height="12" style="stroke:#181818;stroke-width:1.5;" width="12" x="1285.5" y="212.7378"/><!--link fpga_gnd to esp32_gnd--><g id="link_fpga_gnd_esp32_gnd"><path d="M584.2,297.7378 C618.82,297.7378 834.21,297.7378 872.64,297.7378 " fill="none" id="fpga_gnd-esp32_gnd" style="stroke:#181818;stroke-width:1.0;"/><text fill="#000000" font-family="sans-serif" font-size="13" lengthAdjust="spacing" textLength="28" x="706" y="293.6348">GND</text></g><!--link fpga_pin_C4 to esp32_rx_pin_16--><g id="link_fpga_pin_C4_esp32_rx_pin_16"><path d="M586.23,85.7378 C621.23,85.7378 833.78,85.7378 871.09,85.7378 " fill="none" id="fpga_pin_C4-to-esp32_rx_pin_16" style="stroke:#181818;stroke-width:1.0;"/><polygon fill="#181818" points="877.09,85.7378,868.09,81.7378,872.09,85.7378,868.09,89.7378,877.09,85.7378" style="stroke:#181818;stroke-width:1.0;"/><text fill="#000000" font-family="sans-serif" font-size="13" lengthAdjust="spacing" textLength="106" x="667" y="81.6348">UART Transmitter</text></g><!--reverse link fpga_pin_D4 to esp32_tx_pin_17--><g id="link_fpga_pin_D4_esp32_tx_pin_17"><path d="M592.72,191.7378 C629.26,191.7378 840.13,191.7378 877.13,191.7378 " fill="none" id="fpga_pin_D4-backto-esp32_tx_pin_17" style="stroke:#181818;stroke-width:1.0;"/><polygon fill="#181818" points="586.72,191.7378,595.72,195.7378,591.72,191.7378,595.72,187.7378,586.72,191.7378" style="stroke:#181818;stroke-width:1.0;"/><text fill="#000000" font-family="sans-serif" font-size="13" lengthAdjust="spacing" textLength="86" x="677" y="187.6348">UART Receiver</text></g><!--link esp32_USB to pc_ttyUSB1--><g id="link_esp32_USB_pc_ttyUSB1"><path d="M1108.7076,192.2909 C1135.0576,196.1209 1250.8023,212.9056 1279.3823,217.0556 " fill="none" id="esp32_USB-pc_ttyUSB1" style="stroke:#181818;stroke-width:1.0;"/><polygon fill="#181818" points="1102.77,191.4278,1111.1011,196.6808,1107.718,192.147,1112.2518,188.764,1102.77,191.4278" style="stroke:#181818;stroke-width:1.0;"/><polygon fill="#181818" points="1285.32,217.9178,1276.9882,212.666,1280.3719,217.1993,1275.8386,220.583,1285.32,217.9178" style="stroke:#181818;stroke-width:1.0;"/><text fill="#000000" font-family="sans-serif" font-size="13" lengthAdjust="spacing" textLength="79" x="1152" y="195.6348">USB Picocom</text></g><!--link bridge_USB to pc_ttyUSB0--><g id="link_bridge_USB_pc_ttyUSB0"><path d="M218.23,368.7378 C238.88,368.7378 310.83,368.7378 375,368.7378 C375,368.7378 375,368.7378 1095,368.7378 C1172.07,368.7378 1256.544,338.1124 1279.734,329.1424 " fill="none" id="bridge_USB-pc_ttyUSB0" style="stroke:#008000;stroke-width:1.0;"/><polygon fill="#008000" points="212.23,368.7378,221.23,372.7378,217.23,368.7378,221.23,364.7378,212.23,368.7378" style="stroke:#008000;stroke-width:1.0;"/><polygon fill="#008000" points="1285.33,326.9778,1275.493,326.494,1280.6667,328.7816,1278.3791,333.9553,1285.33,326.9778" style="stroke:#008000;stroke-width:1.0;"/><text fill="#000000" font-family="sans-serif" font-size="13" lengthAdjust="spacing" textLength="166" x="637" y="364.6348">USB OpenFPGALoader JTAG</text></g><!--link bridge_jtag_bitbang to fpga_jtag--><g id="link_bridge_jtag_bitbang_fpga_jtag"><path d="M225.6409,261.6872 C248.8909,259.3872 339.9691,250.3981 365.3591,247.8881 " fill="none" id="bridge_jtag_bitbang-fpga_jtag" style="stroke:#008000;stroke-width:1.0;"/><polygon fill="#008000" points="219.67,262.2778,229.0201,265.3724,224.6457,261.7856,228.2325,257.4112,219.67,262.2778" style="stroke:#008000;stroke-width:1.0;"/><polygon fill="#008000" points="371.33,247.2978,361.9801,244.2026,366.3543,247.7897,362.7672,252.1638,371.33,247.2978" style="stroke:#008000;stroke-width:1.0;"/><text fill="#000000" font-family="sans-serif" font-size="13" lengthAdjust="spacing" textLength="28" x="290" y="249.6348">JTAG</text></g><!--link bridge_gnd to fpga_gnd--><g id="link_bridge_gnd_fpga_gnd"><path d="M212.08,155.5578 C244.07,148.4278 419.62,113.8778 525,187.7378 C534.44,194.3578 565.87,269.4678 575,291.6278 " fill="none" id="bridge_gnd-fpga_gnd" style="stroke:#008000;stroke-width:1.0;"/><text fill="#000000" font-family="sans-serif" font-size="13" lengthAdjust="spacing" textLength="28" x="362" y="137.6348">GND</text></g><!--SRC=[RL9TQy8m57tFhxZWiw1r7o13KAl58LkfzKqejOrTjZO9yMvCPFzzQQjfh7qzvznxxZa9CimfB7rlsbzi_953Sdf0G06APHy8ALCqGIOuENunBcCL5v28GWfEEMxmf6TBGSopd193LFjsV37t7w6NiuB2cG18eL1y8nna5aSPJzkGP3no7xhG-HLbl0O_CSx87x4SPy7AzHOxlWpTLUICd63TuRnNBCrejDtCxi5oPRHdkDTPxjdot1k_gYpefMbwRcwZHpboh6W6mjygn_2vJQWByMHPranvv8sZFw_imFAJIOHuqif11pOinwzTGx_VN3S6xyqbLhkQdRGF6iDs6eGGgfWV2uP85R5U2LxCGfFjCX7GXB8VBJSvIl74EamBDUYpHEXqf7cKbcu0lKnHog7MlqlAot-r5d5A5Ro6Kuzql5sznFoIPeSzS6d4j6D4PJ7_]--></g></svg>