<svg xmlns="http://www.w3.org/2000/svg" xmlns:xlink="http://www.w3.org/1999/xlink" xmlns:s="https://github.com/nturley/netlistsvg" width="394" height="142">
  <style>svg {
    stroke:#000;
    fill:none;
  }
  text {
    fill:#000;
    stroke:none;
    font-size:10px;
    font-weight: bold;
    font-family: "Courier New", monospace;
  }
  .nodelabel {
    text-anchor: middle;
  }
  .inputPortLabel {
    text-anchor: end;
  }
  .splitjoinBody {
    fill:#000;
  }</style>
  <g s:type="or" transform="translate(281,40)" s:width="30" s:height="25" id="cell_$or$./fulladder.v:19$6">
    <s:alias val="$or"/>
    <s:alias val="$logic_or"/>
    <s:alias val="$_OR_"/>
    <path d="M0,25 L0,25 L15,25 A15 12.5 0 0 0 15,0 L0,0" class="cell_$or$./fulladder.v:19$6"/>
    <path d="M0,0 A30 25 0 0 1 0,25" class="cell_$or$./fulladder.v:19$6"/>
    <g s:x="3" s:y="5" s:pid="A"/>
    <g s:x="3" s:y="20" s:pid="B"/>
    <g s:x="30" s:y="12.5" s:pid="Y"/>
  </g>
  <g s:type="generic" transform="translate(84,87)" s:width="30" s:height="40" id="cell_halfadder1">
    <text x="15" y="-4" class="nodelabel cell_halfadder1" s:attribute="ref">halfadder</text>
    <rect width="30" height="40" s:generic="body" class="cell_halfadder1"/>
    <g transform="translate(0,10)" s:x="0" s:y="10" s:pid="in0" id="port_halfadder1~a">
      <text x="-3" y="-4" class="inputPortLabel cell_halfadder1">a</text>
    </g>
    <g transform="translate(0,30)" s:x="0" s:y="10" s:pid="in0" id="port_halfadder1~b">
      <text x="-3" y="-4" class="inputPortLabel cell_halfadder1">b</text>
    </g>
    <g transform="translate(30,10)" s:x="30" s:y="10" s:pid="out0" id="port_halfadder1~co">
      <text x="5" y="-4" style="fill:#000; stroke:none" class="cell_halfadder1">co</text>
    </g>
    <g transform="translate(30,30)" s:x="30" s:y="10" s:pid="out0" id="port_halfadder1~s">
      <text x="5" y="-4" style="fill:#000; stroke:none" class="cell_halfadder1">s</text>
    </g>
  </g>
  <g s:type="generic" transform="translate(186,87)" s:width="30" s:height="40" id="cell_halfadder2">
    <text x="15" y="-4" class="nodelabel cell_halfadder2" s:attribute="ref">halfadder</text>
    <rect width="30" height="40" s:generic="body" class="cell_halfadder2"/>
    <g transform="translate(0,10)" s:x="0" s:y="10" s:pid="in0" id="port_halfadder2~a">
      <text x="-3" y="-4" class="inputPortLabel cell_halfadder2">a</text>
    </g>
    <g transform="translate(0,30)" s:x="0" s:y="10" s:pid="in0" id="port_halfadder2~b">
      <text x="-3" y="-4" class="inputPortLabel cell_halfadder2">b</text>
    </g>
    <g transform="translate(30,10)" s:x="30" s:y="10" s:pid="out0" id="port_halfadder2~co">
      <text x="5" y="-4" style="fill:#000; stroke:none" class="cell_halfadder2">co</text>
    </g>
    <g transform="translate(30,30)" s:x="30" s:y="10" s:pid="out0" id="port_halfadder2~s">
      <text x="5" y="-4" style="fill:#000; stroke:none" class="cell_halfadder2">s</text>
    </g>
  </g>
  <g s:type="inputExt" transform="translate(12,107.5)" s:width="30" s:height="20" id="cell_in_b">
    <text x="15" y="-4" class="nodelabel cell_in_b" s:attribute="ref">in_b</text>
    <s:alias val="$_inputExt_"/>
    <path d="M0,0 L0,20 L15,20 L30,10 L15,0 Z" class="cell_in_b"/>
    <g s:x="28" s:y="10" s:pid="Y"/>
  </g>
  <g s:type="inputExt" transform="translate(12,42.5)" s:width="30" s:height="20" id="cell_in_a">
    <text x="15" y="-4" class="nodelabel cell_in_a" s:attribute="ref">in_a</text>
    <s:alias val="$_inputExt_"/>
    <path d="M0,0 L0,20 L15,20 L30,10 L15,0 Z" class="cell_in_a"/>
    <g s:x="28" s:y="10" s:pid="Y"/>
  </g>
  <g s:type="inputExt" transform="translate(84,22)" s:width="30" s:height="20" id="cell_in_ci">
    <text x="15" y="-4" class="nodelabel cell_in_ci" s:attribute="ref">in_ci</text>
    <s:alias val="$_inputExt_"/>
    <path d="M0,0 L0,20 L15,20 L30,10 L15,0 Z" class="cell_in_ci"/>
    <g s:x="28" s:y="10" s:pid="Y"/>
  </g>
  <g s:type="outputExt" transform="translate(346,42.5)" s:width="30" s:height="20" id="cell_out_co">
    <text x="15" y="-4" class="nodelabel cell_out_co" s:attribute="ref">out_co</text>
    <s:alias val="$_outputExt_"/>
    <path d="M30,0 L30,20 L15,20 L0,10 L15,0 Z" class="cell_out_co"/>
    <g s:x="0" s:y="10" s:pid="A"/>
  </g>
  <g s:type="outputExt" transform="translate(346,107.5)" s:width="30" s:height="20" id="cell_out_s">
    <text x="15" y="-4" class="nodelabel cell_out_s" s:attribute="ref">out_s</text>
    <s:alias val="$_outputExt_"/>
    <path d="M30,0 L30,20 L15,20 L0,10 L15,0 Z" class="cell_out_s"/>
    <g s:x="0" s:y="10" s:pid="A"/>
  </g>
  <line x1="115" x2="154" y1="97.5" y2="97.5" class="net_7"/>
  <line x1="154" x2="154" y1="97.5" y2="45" class="net_7"/>
  <line x1="154" x2="284" y1="45" y2="45" class="net_7"/>
  <line x1="217" x2="256" y1="97.5" y2="97.5" class="net_8"/>
  <line x1="256" x2="256" y1="97.5" y2="60" class="net_8"/>
  <line x1="256" x2="284" y1="60" y2="60" class="net_8"/>
  <line x1="40" x2="52" y1="52.5" y2="52.5" class="net_3"/>
  <line x1="52" x2="52" y1="52.5" y2="97.5" class="net_3"/>
  <line x1="52" x2="84" y1="97.5" y2="97.5" class="net_3"/>
  <line x1="40" x2="84" y1="117.5" y2="117.5" class="net_2"/>
  <line x1="112" x2="164" y1="32" y2="32" class="net_4"/>
  <line x1="164" x2="164" y1="32" y2="97.5" class="net_4"/>
  <line x1="164" x2="186" y1="97.5" y2="97.5" class="net_4"/>
  <line x1="115" x2="186" y1="117.5" y2="117.5" class="net_9"/>
  <line x1="311" x2="346" y1="52.5" y2="52.5" class="net_5"/>
  <line x1="217" x2="346" y1="117.5" y2="117.5" class="net_6"/>
</svg>
